<svg width="8" height="8" viewBox="0 0 8 8" fill="none" xmlns="http://www.w3.org/2000/svg">
<path d="M1.66699 1.66686C1.66696 1.54956 1.69787 1.43433 1.75662 1.33279C1.81537 1.23126 1.89986 1.14703 2.00158 1.0886C2.10329 1.03016 2.21862 0.999606 2.33592 1C2.45322 1.0004 2.56834 1.03174 2.66966 1.09086L6.66866 3.42353C6.76958 3.48209 6.85336 3.56611 6.91164 3.6672C6.96991 3.76829 7.00064 3.8829 7.00074 3.99958C7.00084 4.11626 6.97031 4.23092 6.91222 4.33211C6.85412 4.4333 6.77048 4.51746 6.66966 4.5762L2.66966 6.90953C2.56834 6.96865 2.45322 6.99999 2.33592 7.00039C2.21862 7.00079 2.10329 6.97023 2.00158 6.9118C1.89986 6.85337 1.81537 6.76913 1.75662 6.6676C1.69787 6.56607 1.66696 6.45083 1.66699 6.33353V1.66686Z" fill="black" stroke="black" stroke-linecap="round" stroke-linejoin="round"/>
</svg>
