<svg width="18" height="18" viewBox="0 0 18 18" fill="none" xmlns="http://www.w3.org/2000/svg">
<path d="M6.75 3.75V6.75" stroke="black" stroke-width="2" stroke-linecap="round" stroke-linejoin="round"/>
<path d="M7.5 6.75H6C5.58579 6.75 5.25 7.08579 5.25 7.5V10.5C5.25 10.9142 5.58579 11.25 6 11.25H7.5C7.91421 11.25 8.25 10.9142 8.25 10.5V7.5C8.25 7.08579 7.91421 6.75 7.5 6.75Z" stroke="black" stroke-width="2" stroke-linecap="round" stroke-linejoin="round"/>
<path d="M6.75 11.25V12.75" stroke="black" stroke-width="2" stroke-linecap="round" stroke-linejoin="round"/>
<path d="M12.75 2.25V3.75" stroke="black" stroke-width="2" stroke-linecap="round" stroke-linejoin="round"/>
<path d="M13.5 3.75H12C11.5858 3.75 11.25 4.08579 11.25 4.5V9C11.25 9.41421 11.5858 9.75 12 9.75H13.5C13.9142 9.75 14.25 9.41421 14.25 9V4.5C14.25 4.08579 13.9142 3.75 13.5 3.75Z" stroke="black" stroke-width="2" stroke-linecap="round" stroke-linejoin="round"/>
<path d="M12.75 9.75V12" stroke="black" stroke-width="2" stroke-linecap="round" stroke-linejoin="round"/>
<path d="M2.25 2.25V14.25C2.25 14.6478 2.40804 15.0294 2.68934 15.3107C2.97064 15.592 3.35218 15.75 3.75 15.75H15.75" stroke="black" stroke-width="2" stroke-linecap="round" stroke-linejoin="round"/>
</svg>
