<svg width="16" height="24" viewBox="0 0 16 24" fill="none" xmlns="http://www.w3.org/2000/svg">
<g clip-path="url(#clip0_257_286)">
<path d="M14.7375 3.67832C14.0531 2.99395 12.9469 2.99395 12.2625 3.67832L11.3219 4.61582L14.3813 7.6752L15.3219 6.73457C16.0063 6.0502 16.0063 4.94395 15.3219 4.25957L14.7375 3.67832ZM5.3875 10.5533C5.19687 10.7439 5.05 10.9783 4.96562 11.2377L4.04063 14.0127C3.95 14.2814 4.02188 14.5783 4.22188 14.7814C4.42188 14.9846 4.71875 15.0533 4.99062 14.9627L7.76562 14.0377C8.02188 13.9533 8.25625 13.8064 8.45 13.6158L13.6781 8.38457L10.6156 5.32207L5.3875 10.5533ZM3 5.0002C1.34375 5.0002 0 6.34395 0 8.0002V16.0002C0 17.6564 1.34375 19.0002 3 19.0002H11C12.6562 19.0002 14 17.6564 14 16.0002V13.0002C14 12.4471 13.5531 12.0002 13 12.0002C12.4469 12.0002 12 12.4471 12 13.0002V16.0002C12 16.5533 11.5531 17.0002 11 17.0002H3C2.44688 17.0002 2 16.5533 2 16.0002V8.0002C2 7.44707 2.44688 7.0002 3 7.0002H6C6.55312 7.0002 7 6.55332 7 6.0002C7 5.44707 6.55312 5.0002 6 5.0002H3Z" fill="white"/>
</g>
<defs>
<clipPath id="clip0_257_286">
<path d="M0 3H16V19H0V3Z" fill="white"/>
</clipPath>
</defs>
</svg>
