<svg width="457" height="224" viewBox="0 0 457 224" fill="none" xmlns="http://www.w3.org/2000/svg">
<path d="M0 24C0 10.7452 10.7452 0 24 0H432.812C446.067 0 456.812 10.7452 456.812 24V200C456.812 213.255 446.067 224 432.812 224H24C10.7452 224 0 213.255 0 200V24Z" fill="url(#paint0_linear_476_1585)"/>
<g filter="url(#filter0_dd_476_1585)">
<path d="M48 64C48 55.1634 55.1634 48 64 48H124.406C133.243 48 140.406 55.1634 140.406 64V160C140.406 168.837 133.243 176 124.406 176H64C55.1634 176 48 168.837 48 160V64Z" fill="white" shape-rendering="crispEdges"/>
<path d="M112.625 129.133V143H100.448V129.133H66.5809V120.689L96.7142 80.7778H109.87L81.6031 118.911H100.803V106.556H112.625V118.911H123.292V129.133H112.625Z" fill="#101828"/>
</g>
<g filter="url(#filter1_dd_476_1585)">
<path d="M316.406 64C316.406 55.1634 323.57 48 332.406 48H392.812C401.649 48 408.812 55.1634 408.812 64V160C408.812 168.837 401.649 176 392.812 176H332.406C323.57 176 316.406 168.837 316.406 160V64Z" fill="white" shape-rendering="crispEdges"/>
<path d="M381.032 129.133V143H368.854V129.133H334.987V120.689L365.12 80.7778H378.276L350.009 118.911H369.209V106.556H381.032V118.911H391.698V129.133H381.032Z" fill="#101828"/>
</g>
<g filter="url(#filter2_dd_476_1585)">
<path d="M164.406 64C164.406 55.1634 171.57 48 180.406 48H276.406C285.243 48 292.406 55.1634 292.406 64V160C292.406 168.837 285.243 176 276.406 176H180.406C171.57 176 164.406 168.837 164.406 160V64Z" fill="white" shape-rendering="crispEdges"/>
<path d="M241.74 128.667H261.74V108.667" stroke="#FB2C36" stroke-width="10" stroke-linecap="round" stroke-linejoin="round"/>
<path d="M261.74 128.666L233.406 100.333L216.74 117L195.073 95.333" stroke="#FB2C36" stroke-width="10" stroke-linecap="round" stroke-linejoin="round"/>
<path d="M268.406 56C268.406 47.1634 275.57 40 284.406 40C293.243 40 300.406 47.1634 300.406 56C300.406 64.8366 293.243 72 284.406 72C275.57 72 268.406 64.8366 268.406 56Z" fill="#FB2C36"/>
<path d="M285.759 49.5556L285.279 57.8222H283.377L282.897 49.5556H285.759ZM284.319 62.1244C283.893 62.1244 283.531 61.9881 283.235 61.7156C282.95 61.4311 282.808 61.0874 282.808 60.6844C282.808 60.2696 282.95 59.9319 283.235 59.6711C283.519 59.3985 283.881 59.2622 284.319 59.2622C284.758 59.2622 285.119 59.3985 285.404 59.6711C285.7 59.9319 285.848 60.2696 285.848 60.6844C285.848 61.0874 285.7 61.4311 285.404 61.7156C285.119 61.9881 284.758 62.1244 284.319 62.1244Z" fill="white"/>
<path fill-rule="evenodd" clip-rule="evenodd" d="M209.642 91.0755C212.624 92.625 217.258 92.1506 219.996 89.9737C221.231 88.9918 222.08 87.6635 222.218 86.0185C222.242 85.7279 222.253 85.4477 222.25 85.1775C222.213 81.3103 219.473 79.5109 215.539 79.8612C214.803 79.9268 214.005 80.1275 213.194 80.4473C212.54 80.7055 211.877 81.0413 211.232 81.4462C208.463 83.1851 206.032 86.1953 206.032 89.7887C206.291 92.398 206.841 92.0174 207.627 91.4725C208.186 91.0857 208.864 90.616 209.642 91.0755ZM214.517 87.6359C215.834 87.6359 216.8 86.4825 216.8 85.1453C216.8 83.8081 216.107 82.897 214.79 82.897C213.472 82.897 212.438 84.2232 212.438 85.5604C212.438 86.8976 213.2 87.6359 214.517 87.6359Z" fill="black"/>
<path d="M222.25 85.1778C222.253 85.448 222.242 85.7282 222.218 86.0187C222.08 87.6637 221.231 88.992 219.996 89.9739C220.329 91.4301 221.474 92.908 223.771 94.0049C223.796 94.0167 223.828 94.0235 223.853 94.0354C225.591 94.7788 227.051 95.2053 228.262 95.3906C229.845 95.6329 231.003 95.4627 231.8 95.0484C232.295 94.7915 232.651 94.4403 232.883 94.0354C233.454 93.0406 233.505 91.9701 233.19 90.9189C232.896 89.9378 232.283 88.9736 231.476 88.1037C229.692 86.18 226.96 84.7183 224.637 84.5576C223.761 84.5576 222.947 84.7859 222.25 85.1778Z" fill="black"/>
<path d="M231.8 95.0483C231.812 95.3909 231.855 95.7344 231.933 96.0762C234.526 95.9247 239.085 94.7963 239.085 94.7963C239.085 94.7963 240.157 98.7168 242.134 102.544C246.773 103.058 249.269 101.279 249.511 100.891C252.844 95.5599 246.264 87.9494 239.698 87.5322C237.854 87.5322 236.086 88.2433 234.692 89.3626C234.122 89.82 233.615 90.3457 233.19 90.9187C233.505 91.97 233.454 93.0405 232.883 94.0352C232.651 94.4402 232.295 94.7913 231.8 95.0483Z" fill="black"/>
<path d="M239.085 94.7959C239.085 94.7959 234.526 95.9243 231.933 96.0758C232.374 98.0099 233.92 99.8866 237.04 101.23C238.954 101.981 240.653 102.379 242.134 102.544C240.157 98.7164 239.085 94.7959 239.085 94.7959Z" fill="black"/>
<path d="M219.996 89.9737C217.258 92.1507 212.624 92.6251 209.642 91.0756C208.864 90.6161 208.186 91.0857 207.627 91.4726C206.841 92.0174 206.291 92.3981 206.032 89.7888C206.032 86.1954 208.463 83.1851 211.232 81.4463M219.996 89.9737C221.231 88.9918 222.08 87.6635 222.218 86.0185C222.242 85.728 222.253 85.4478 222.25 85.1776M219.996 89.9737C220.329 91.4299 221.474 92.9078 223.771 94.0047M211.232 81.4463C211.876 81.0414 212.54 80.7056 213.194 80.4474M211.232 81.4463C211.162 80.8463 210.734 78.7659 208.145 76.8089C205.078 74.4915 202.406 76.1134 202.406 76.1134M222.25 85.1776C222.213 81.3104 219.473 79.511 215.539 79.8613C214.803 79.9269 214.005 80.1276 213.194 80.4474M222.25 85.1776C222.947 84.7857 223.761 84.5574 224.637 84.5574C226.96 84.7181 229.692 86.1798 231.476 88.1035M223.771 94.0047C223.796 94.0165 223.828 94.0233 223.853 94.0352C225.591 94.7786 227.051 95.2051 228.262 95.3904M223.771 94.0047C222.786 96.2154 216.289 95.73 216.289 95.73C216.289 95.73 212.956 107.573 208.894 107.802M213.194 80.4474C213.206 79.8978 213.09 77.5297 210.451 74.9375C207.436 71.9767 204.35 73.2904 204.35 73.2904M231.476 88.1035C232.283 88.9734 232.896 89.9376 233.19 90.9187M231.476 88.1035C233.236 85.1304 232.172 85.7452 234.692 89.3625M231.8 95.0482C232.295 94.7913 232.651 94.4401 232.883 94.0352C233.454 93.0404 233.505 91.9699 233.19 90.9187M231.8 95.0482C231.003 95.4625 229.845 95.6327 228.262 95.3904M231.8 95.0482C231.812 95.3909 231.855 95.7344 231.933 96.0762M233.19 90.9187C233.615 90.3456 234.122 89.8199 234.692 89.3625M228.262 95.3904C228.557 101.088 229.227 103.463 231.23 106.241M228.262 95.3904C228.259 95.3369 228.265 95.4446 228.262 95.3904ZM231.933 96.0762C230.787 96.143 230.026 96.0193 230.21 95.5239M231.933 96.0762C234.526 95.9247 239.085 94.7962 239.085 94.7962C239.085 94.7962 240.157 98.7168 242.134 102.544M231.933 96.0762C232.374 98.0103 233.92 99.8869 237.04 101.23C238.954 101.982 240.653 102.38 242.134 102.544M234.692 89.3625C236.086 88.2432 237.854 87.5322 239.698 87.5322C246.264 87.9493 252.844 95.5598 249.511 100.891C249.269 101.279 246.773 103.058 242.134 102.544M242.134 102.544C243.762 105.695 246.002 108.783 248.762 109.567M217.209 111.884C219.787 110.165 221.493 99.1898 221.493 99.1898C221.493 99.1898 225.979 97.0782 225.903 94.8355M237.719 113.606C234.791 111.566 234.088 100.45 234.088 100.45C234.088 100.45 228.883 97.7739 229.258 95.5573M216.8 85.1454C216.8 86.4826 215.834 87.6359 214.517 87.6359C213.199 87.6359 212.438 86.8977 212.438 85.5605C212.438 84.2233 213.472 82.8971 214.789 82.8971C216.107 82.8971 216.8 83.8082 216.8 85.1454Z" stroke="black" stroke-linecap="round"/>
<path d="M215.031 93C214.281 93 213.406 92.625 213.406 91C213.406 89.25 214.49 87.5833 215.031 87C215.573 87.75 216.406 89.625 216.406 91C216.406 92.375 215.656 93 215.031 93Z" fill="#4D96FF"/>
</g>
<defs>
<filter id="filter0_dd_476_1585" x="36" y="46" width="116.406" height="152" filterUnits="userSpaceOnUse" color-interpolation-filters="sRGB">
<feFlood flood-opacity="0" result="BackgroundImageFix"/>
<feColorMatrix in="SourceAlpha" type="matrix" values="0 0 0 0 0 0 0 0 0 0 0 0 0 0 0 0 0 0 127 0" result="hardAlpha"/>
<feMorphology radius="4" operator="erode" in="SourceAlpha" result="effect1_dropShadow_476_1585"/>
<feOffset dy="4"/>
<feGaussianBlur stdDeviation="3"/>
<feComposite in2="hardAlpha" operator="out"/>
<feColorMatrix type="matrix" values="0 0 0 0 0 0 0 0 0 0 0 0 0 0 0 0 0 0 0.1 0"/>
<feBlend mode="normal" in2="BackgroundImageFix" result="effect1_dropShadow_476_1585"/>
<feColorMatrix in="SourceAlpha" type="matrix" values="0 0 0 0 0 0 0 0 0 0 0 0 0 0 0 0 0 0 127 0" result="hardAlpha"/>
<feMorphology radius="3" operator="erode" in="SourceAlpha" result="effect2_dropShadow_476_1585"/>
<feOffset dy="10"/>
<feGaussianBlur stdDeviation="7.5"/>
<feComposite in2="hardAlpha" operator="out"/>
<feColorMatrix type="matrix" values="0 0 0 0 0 0 0 0 0 0 0 0 0 0 0 0 0 0 0.1 0"/>
<feBlend mode="normal" in2="effect1_dropShadow_476_1585" result="effect2_dropShadow_476_1585"/>
<feBlend mode="normal" in="SourceGraphic" in2="effect2_dropShadow_476_1585" result="shape"/>
</filter>
<filter id="filter1_dd_476_1585" x="304.406" y="46" width="116.406" height="152" filterUnits="userSpaceOnUse" color-interpolation-filters="sRGB">
<feFlood flood-opacity="0" result="BackgroundImageFix"/>
<feColorMatrix in="SourceAlpha" type="matrix" values="0 0 0 0 0 0 0 0 0 0 0 0 0 0 0 0 0 0 127 0" result="hardAlpha"/>
<feMorphology radius="4" operator="erode" in="SourceAlpha" result="effect1_dropShadow_476_1585"/>
<feOffset dy="4"/>
<feGaussianBlur stdDeviation="3"/>
<feComposite in2="hardAlpha" operator="out"/>
<feColorMatrix type="matrix" values="0 0 0 0 0 0 0 0 0 0 0 0 0 0 0 0 0 0 0.1 0"/>
<feBlend mode="normal" in2="BackgroundImageFix" result="effect1_dropShadow_476_1585"/>
<feColorMatrix in="SourceAlpha" type="matrix" values="0 0 0 0 0 0 0 0 0 0 0 0 0 0 0 0 0 0 127 0" result="hardAlpha"/>
<feMorphology radius="3" operator="erode" in="SourceAlpha" result="effect2_dropShadow_476_1585"/>
<feOffset dy="10"/>
<feGaussianBlur stdDeviation="7.5"/>
<feComposite in2="hardAlpha" operator="out"/>
<feColorMatrix type="matrix" values="0 0 0 0 0 0 0 0 0 0 0 0 0 0 0 0 0 0 0.1 0"/>
<feBlend mode="normal" in2="effect1_dropShadow_476_1585" result="effect2_dropShadow_476_1585"/>
<feBlend mode="normal" in="SourceGraphic" in2="effect2_dropShadow_476_1585" result="shape"/>
</filter>
<filter id="filter2_dd_476_1585" x="152.406" y="38" width="160" height="160" filterUnits="userSpaceOnUse" color-interpolation-filters="sRGB">
<feFlood flood-opacity="0" result="BackgroundImageFix"/>
<feColorMatrix in="SourceAlpha" type="matrix" values="0 0 0 0 0 0 0 0 0 0 0 0 0 0 0 0 0 0 127 0" result="hardAlpha"/>
<feMorphology radius="4" operator="erode" in="SourceAlpha" result="effect1_dropShadow_476_1585"/>
<feOffset dy="4"/>
<feGaussianBlur stdDeviation="3"/>
<feComposite in2="hardAlpha" operator="out"/>
<feColorMatrix type="matrix" values="0 0 0 0 0 0 0 0 0 0 0 0 0 0 0 0 0 0 0.1 0"/>
<feBlend mode="normal" in2="BackgroundImageFix" result="effect1_dropShadow_476_1585"/>
<feColorMatrix in="SourceAlpha" type="matrix" values="0 0 0 0 0 0 0 0 0 0 0 0 0 0 0 0 0 0 127 0" result="hardAlpha"/>
<feMorphology radius="3" operator="erode" in="SourceAlpha" result="effect2_dropShadow_476_1585"/>
<feOffset dy="10"/>
<feGaussianBlur stdDeviation="7.5"/>
<feComposite in2="hardAlpha" operator="out"/>
<feColorMatrix type="matrix" values="0 0 0 0 0 0 0 0 0 0 0 0 0 0 0 0 0 0 0.1 0"/>
<feBlend mode="normal" in2="effect1_dropShadow_476_1585" result="effect2_dropShadow_476_1585"/>
<feBlend mode="normal" in="SourceGraphic" in2="effect2_dropShadow_476_1585" result="shape"/>
</filter>
<linearGradient id="paint0_linear_476_1585" x1="0" y1="112" x2="456.812" y2="112" gradientUnits="userSpaceOnUse">
<stop stop-color="#FFE2E2"/>
<stop offset="1" stop-color="#DBEAFE"/>
</linearGradient>
</defs>
</svg>
