<svg width="624" height="261" viewBox="0 0 624 261" fill="none" xmlns="http://www.w3.org/2000/svg">
<g filter="url(#filter0_d_476_1607)">
<path d="M12 24C12 15.1634 19.1634 8 28 8H596C604.837 8 612 15.1634 612 24V228.5C612 237.337 604.837 244.5 596 244.5H28C19.1634 244.5 12 237.337 12 228.5V24Z" fill="white" shape-rendering="crispEdges"/>
<path d="M36 54.5C36 43.4543 44.9543 34.5 56 34.5C67.0457 34.5 76 43.4543 76 54.5C76 65.5457 67.0457 74.5 56 74.5C44.9543 74.5 36 65.5457 36 54.5Z" fill="#FFE2E2"/>
<path d="M59.3333 58.667H64.3333V53.667" stroke="#FB2C36" stroke-width="1.66667" stroke-linecap="round" stroke-linejoin="round"/>
<path d="M64.3334 58.6663L57.25 51.583L53.0834 55.7497L47.6667 50.333" stroke="#FB2C36" stroke-width="1.66667" stroke-linecap="round" stroke-linejoin="round"/>
<path d="M101.28 50.6044H99.1822V36.9511H101.28V50.6044ZM98.0444 37.0044V50.3733H95.9467V44.56H94.7911C94.72 46.4681 94.4237 47.8667 93.9022 48.7556C93.3807 49.6326 92.64 50.0711 91.68 50.0711C90.637 50.0711 89.8548 49.5615 89.3333 48.5422C88.8119 47.5111 88.5511 45.8696 88.5511 43.6178C88.5511 41.3778 88.8119 39.7422 89.3333 38.7111C89.8548 37.68 90.637 37.1644 91.68 37.1644C92.6044 37.1644 93.3274 37.5793 93.8489 38.4089C94.3704 39.2267 94.6785 40.5185 94.7733 42.2844H95.9467V37.0044H98.0444ZM91.68 47.9378C92.0356 47.9378 92.2963 47.5941 92.4622 46.9067C92.6281 46.2074 92.7111 45.1111 92.7111 43.6178C92.7111 42.1244 92.6281 41.0341 92.4622 40.3467C92.2963 39.6474 92.0356 39.2978 91.68 39.2978C91.3126 39.2978 91.0459 39.6474 90.88 40.3467C90.7141 41.0341 90.6311 42.1244 90.6311 43.6178C90.6311 45.1111 90.7141 46.2074 90.88 46.9067C91.0459 47.5941 91.3126 47.9378 91.68 47.9378ZM115.074 50.6044H112.834V44.3644H110.754V42.0533H112.834V36.9511H115.074V50.6044ZM108.158 47.7956C108.763 47.7956 109.373 47.7363 109.989 47.6178C110.606 47.4993 111.115 47.3452 111.518 47.1556V49.2533C111.127 49.4548 110.611 49.6148 109.971 49.7333C109.331 49.8519 108.674 49.9111 107.998 49.9111H103.145V42.5333H107.82V39.4578H103.109V37.3244H110.06V44.6311H105.385V47.7956H108.158ZM120.916 43.9733V41.7689H130.196V39.4933H120.916V37.2889H132.454V46.6578H130.196V43.9733H120.916ZM133.254 50.0711H120.17V47.8667H124.685V45.3778H126.961V47.8667H133.254V50.0711ZM137.288 39.5111V43.4756H146.71V45.6444H134.994V37.3244H146.568V39.5111H137.288ZM134.248 50.0711V47.8667H147.332V50.0711H134.248ZM150.05 41.9644C149.624 41.9644 149.262 41.8163 148.966 41.52C148.67 41.2237 148.521 40.8563 148.521 40.4178C148.521 39.9674 148.664 39.6 148.948 39.3156C149.244 39.0311 149.612 38.8889 150.05 38.8889C150.489 38.8889 150.85 39.0311 151.135 39.3156C151.431 39.6 151.579 39.9674 151.579 40.4178C151.579 40.8563 151.431 41.2237 151.135 41.52C150.838 41.8163 150.477 41.9644 150.05 41.9644ZM150.05 48.6489C149.624 48.6489 149.262 48.5007 148.966 48.2044C148.67 47.9081 148.521 47.5407 148.521 47.1022C148.521 46.6519 148.664 46.2844 148.948 46C149.244 45.7156 149.612 45.5733 150.05 45.5733C150.489 45.5733 150.85 45.7156 151.135 46C151.431 46.2844 151.579 46.6519 151.579 47.1022C151.579 47.5407 151.431 47.9081 151.135 48.2044C150.838 48.5007 150.477 48.6489 150.05 48.6489ZM164.866 47.2267V50H162.43V47.2267H155.657V45.5378L161.683 37.5556H164.315L158.661 45.1822H162.501V42.7111H164.866V45.1822H166.999V47.2267H164.866ZM171.786 50.1956C170.779 50.1956 169.878 49.9407 169.084 49.4311C168.29 48.9215 167.668 48.1867 167.218 47.2267C166.767 46.2548 166.542 45.1052 166.542 43.7778C166.542 42.4504 166.767 41.3067 167.218 40.3467C167.668 39.3748 168.29 38.6341 169.084 38.1244C169.878 37.6148 170.779 37.36 171.786 37.36C172.806 37.36 173.712 37.6148 174.506 38.1244C175.301 38.6341 175.917 39.3748 176.355 40.3467C176.806 41.3067 177.031 42.4504 177.031 43.7778C177.031 45.1052 176.806 46.2548 176.355 47.2267C175.917 48.1867 175.301 48.9215 174.506 49.4311C173.712 49.9407 172.806 50.1956 171.786 50.1956ZM171.786 48.0622C172.628 48.0622 173.292 47.7067 173.778 46.9956C174.275 46.2726 174.524 45.2 174.524 43.7778C174.524 42.3556 174.275 41.2889 173.778 40.5778C173.292 39.8548 172.628 39.4933 171.786 39.4933C170.957 39.4933 170.293 39.8548 169.795 40.5778C169.309 41.2889 169.066 42.3556 169.066 43.7778C169.066 45.2 169.309 46.2726 169.795 46.9956C170.293 47.7067 170.957 48.0622 171.786 48.0622ZM186.209 47.2267V50H183.774V47.2267H177.001V45.5378L183.027 37.5556H185.658L180.005 45.1822H183.845V42.7111H186.209V45.1822H188.343V47.2267H186.209Z" fill="#101828"/>
<path d="M99.3556 72.5289H98.2978V60.5822H99.3556V72.5289ZM96.7733 60.6444V72.3267H95.7311V66.6333H94.2378V65.5289H95.7311V60.6444H96.7733ZM93.32 70.5844C93.9007 70.5119 94.4141 70.3563 94.86 70.1178V71.2067C94.1237 71.5904 92.8481 71.7822 91.0333 71.7822H88.4511V70.7244H89.54V62.1067H88.5133V61.0489H94.3778V62.1067H93.32V70.5844ZM90.5667 70.7244C91.3548 70.7244 91.9304 70.7141 92.2933 70.6933V62.1067H90.5667V70.7244ZM110.227 72.5289V60.5822H111.363V72.5289H110.227ZM104.752 60.8933C105.789 60.8933 106.613 61.36 107.225 62.2933C107.847 63.2267 108.158 64.6007 108.158 66.4156C108.158 68.2304 107.847 69.6044 107.225 70.5378C106.613 71.4711 105.789 71.9378 104.752 71.9378C103.715 71.9378 102.885 71.4711 102.263 70.5378C101.651 69.6044 101.345 68.2304 101.345 66.4156C101.345 64.6007 101.651 63.2267 102.263 62.2933C102.885 61.36 103.715 60.8933 104.752 60.8933ZM104.752 61.9667C104.057 61.9667 103.502 62.34 103.087 63.0867C102.672 63.823 102.465 64.9326 102.465 66.4156C102.465 67.9089 102.672 69.0237 103.087 69.76C103.502 70.4963 104.057 70.8644 104.752 70.8644C105.426 70.8644 105.975 70.4963 106.401 69.76C106.826 69.0133 107.038 67.8985 107.038 66.4156C107.038 64.943 106.826 63.8333 106.401 63.0867C105.975 62.34 105.426 61.9667 104.752 61.9667ZM123.681 72.5289H122.546V60.5822H123.681V72.5289ZM117.894 62.1378C117.884 63.5689 117.765 64.8911 117.537 66.1044L121.317 70.9733L120.43 71.6733L117.179 67.4111C116.806 68.697 116.297 69.7185 115.654 70.4756C115.012 71.2222 114.265 71.6578 113.414 71.7822V70.6156C114.099 70.4704 114.69 70.0193 115.188 69.2622C115.686 68.4948 116.069 67.4993 116.339 66.2756C116.609 65.0415 116.754 63.6622 116.774 62.1378H113.663V61.0489H120.912V62.1378H117.894ZM137.94 72.5289V60.5822H139.076V72.5289H137.94ZM129.213 71.7822V61.0489H135.607V71.7822H129.213ZM134.471 62.1533H130.333V70.6778H134.471V62.1533ZM152.716 63.8956H151.067V66.6022H149.947V60.5822H151.067V62.8222H152.716V63.8956ZM141.283 66.0889V60.8156H142.387V62.4022H146.758V60.8156H147.863V66.0889H141.283ZM146.758 63.3511H142.387V65.1244H146.758V63.3511ZM151.378 71.4711V72.3422H141.672V69.4022H149.963V68.1889H141.641V67.3022H151.067V70.2267H142.792V71.4711H151.378ZM160.104 66.3533V65.28H162.686V63.32H160.539V62.2467H162.686V60.5822H163.79V69.48H162.686V66.3533H160.104ZM159.979 62.4644C159.979 64.1133 159.404 65.3733 158.252 66.2444C157.101 67.1156 155.535 67.5511 153.555 67.5511V66.4778C155.214 66.4778 156.51 66.1407 157.444 65.4667C158.387 64.7926 158.859 63.8333 158.859 62.5889V61.9511H153.555V60.9089H159.979V62.4644ZM164.055 72.3422H154.224V68.6244H155.359V71.2689H164.055V72.3422Z" fill="#4A5565"/>
<path d="M36 105C36 98.3726 41.3726 93 48 93H576C582.627 93 588 98.3726 588 105V208.5C588 215.127 582.627 220.5 576 220.5H48C41.3726 220.5 36 215.127 36 208.5V105Z" fill="#F9FAFB"/>
<path d="M52 125.98H66V111.98H52V125.98ZM78.7984 125.529V113.582H80.214V125.529H78.7984ZM73.4939 113.847C74.5517 113.847 75.3865 114.313 75.9984 115.247C76.6206 116.18 76.9317 117.57 76.9317 119.416C76.9317 121.261 76.6206 122.651 75.9984 123.584C75.3865 124.518 74.5517 124.984 73.4939 124.984C72.4362 124.984 71.5962 124.518 70.9739 123.584C70.3517 122.651 70.0406 121.261 70.0406 119.416C70.0406 117.57 70.3517 116.18 70.9739 115.247C71.5962 114.313 72.4362 113.847 73.4939 113.847ZM73.4939 115.2C72.8614 115.2 72.3584 115.547 71.9851 116.242C71.6117 116.927 71.4251 117.984 71.4251 119.416C71.4251 120.847 71.6117 121.91 71.9851 122.604C72.3584 123.289 72.8614 123.631 73.4939 123.631C74.1058 123.631 74.5984 123.284 74.9717 122.589C75.3451 121.894 75.5317 120.836 75.5317 119.416C75.5317 117.995 75.3451 116.937 74.9717 116.242C74.5984 115.547 74.1058 115.2 73.4939 115.2ZM89.2968 117.456V116.087H91.1945V113.582H92.6101V122.496H91.1945V117.456H89.2968ZM87.1812 115.044H82.3123V113.862H88.5656V117.922H83.7279V119.664H86.419C87.1656 119.664 87.8449 119.623 88.4568 119.54C89.0686 119.447 89.5508 119.317 89.9034 119.151V120.333C89.5612 120.499 89.0738 120.629 88.4412 120.722C87.8086 120.816 87.1034 120.862 86.3256 120.862H82.3434V116.787H87.1812V115.044ZM92.8434 125.389H82.8879V121.92H84.3345V124.067H92.8434V125.389ZM104.24 118.918V117.627H106.605V116.118H104.676V114.827H106.605V113.582H108.005V120.178H106.605V118.918H104.24ZM104.131 115.184C104.131 116.75 103.556 117.917 102.405 118.684C101.264 119.441 99.672 119.82 97.6291 119.82V118.544C99.2261 118.534 100.471 118.27 101.362 117.751C102.254 117.222 102.7 116.455 102.7 115.449V115.107H97.6291V113.862H104.131V115.184ZM103.182 120.551C104.665 120.551 105.863 120.753 106.776 121.158C107.699 121.552 108.16 122.179 108.16 123.04C108.16 123.901 107.704 124.533 106.791 124.938C105.879 125.342 104.676 125.544 103.182 125.544C101.699 125.544 100.502 125.342 99.5891 124.938C98.6765 124.533 98.2202 123.901 98.2202 123.04C98.2202 122.179 98.6765 121.552 99.5891 121.158C100.502 120.753 101.699 120.551 103.182 120.551ZM103.182 124.331C104.199 124.331 105.034 124.222 105.687 124.004C106.34 123.787 106.667 123.465 106.667 123.04C106.667 122.615 106.34 122.299 105.687 122.091C105.044 121.873 104.209 121.764 103.182 121.764C102.166 121.764 101.331 121.873 100.678 122.091C100.035 122.299 99.7135 122.615 99.7135 123.04C99.7135 123.465 100.04 123.787 100.694 124.004C101.347 124.222 102.176 124.331 103.182 124.331ZM115.267 120.084C114.251 120.084 113.359 119.955 112.592 119.696C111.835 119.436 111.244 119.068 110.819 118.591C110.404 118.104 110.196 117.533 110.196 116.88C110.196 116.227 110.404 115.661 110.819 115.184C111.244 114.697 111.835 114.324 112.592 114.064C113.359 113.805 114.251 113.676 115.267 113.676C116.284 113.676 117.17 113.805 117.927 114.064C118.695 114.324 119.286 114.697 119.701 115.184C120.126 115.661 120.339 116.227 120.339 116.88C120.339 117.533 120.126 118.104 119.701 118.591C119.286 119.068 118.695 119.436 117.927 119.696C117.17 119.955 116.284 120.084 115.267 120.084ZM115.267 114.998C114.189 114.998 113.318 115.164 112.654 115.496C112.001 115.827 111.674 116.289 111.674 116.88C111.674 117.471 112.001 117.933 112.654 118.264C113.318 118.586 114.189 118.747 115.267 118.747C116.346 118.747 117.212 118.586 117.865 118.264C118.529 117.933 118.861 117.471 118.861 116.88C118.861 116.289 118.529 115.827 117.865 115.496C117.212 115.164 116.346 114.998 115.267 114.998ZM115.983 122.527V125.809H114.552V122.527H109.59V121.158H120.945V122.527H115.983ZM125.015 115.511V114.422H128.064V113.24H129.495V114.422H132.606V115.511H125.015ZM135.344 118.078V121.78H133.944V113.582H135.344V116.709H136.884V118.078H135.344ZM133.011 121.08C132.669 121.236 132.171 121.355 131.518 121.438C130.864 121.51 130.128 121.547 129.309 121.547H124.984V120.427H128.095V119.602C127.286 119.53 126.654 119.338 126.198 119.027C125.752 118.716 125.529 118.316 125.529 117.829C125.529 117.269 125.824 116.828 126.415 116.507C127.017 116.175 127.815 116.009 128.811 116.009C129.806 116.009 130.6 116.175 131.191 116.507C131.782 116.828 132.078 117.269 132.078 117.829C132.078 118.316 131.844 118.716 131.378 119.027C130.921 119.338 130.289 119.53 129.48 119.602V120.427C131.16 120.406 132.337 120.25 133.011 119.96V121.08ZM126.835 117.829C126.835 118.067 127.012 118.259 127.364 118.404C127.727 118.55 128.209 118.622 128.811 118.622C129.402 118.622 129.874 118.55 130.226 118.404C130.579 118.259 130.755 118.067 130.755 117.829C130.755 117.59 130.579 117.399 130.226 117.253C129.874 117.108 129.402 117.036 128.811 117.036C128.209 117.036 127.727 117.108 127.364 117.253C127.012 117.399 126.835 117.59 126.835 117.829ZM135.344 122.402V125.544H133.929V123.538H125.715V122.402H135.344ZM146.543 122.449V113.582H147.958V122.449H146.543ZM141.005 113.691C141.731 113.691 142.363 113.841 142.903 114.142C143.452 114.433 143.872 114.842 144.163 115.371C144.463 115.9 144.614 116.501 144.614 117.176C144.614 117.85 144.463 118.451 144.163 118.98C143.872 119.509 143.452 119.924 142.903 120.224C142.363 120.515 141.731 120.66 141.005 120.66C140.279 120.66 139.641 120.515 139.091 120.224C138.552 119.924 138.132 119.509 137.831 118.98C137.541 118.451 137.396 117.85 137.396 117.176C137.396 116.501 137.541 115.9 137.831 115.371C138.132 114.842 138.552 114.433 139.091 114.142C139.641 113.841 140.279 113.691 141.005 113.691ZM141.005 114.936C140.341 114.936 139.807 115.138 139.403 115.542C139.008 115.947 138.811 116.491 138.811 117.176C138.811 117.86 139.008 118.404 139.403 118.809C139.807 119.213 140.341 119.416 141.005 119.416C141.668 119.416 142.203 119.213 142.607 118.809C143.011 118.404 143.214 117.86 143.214 117.176C143.214 116.491 143.011 115.947 142.607 115.542C142.203 115.138 141.668 114.936 141.005 114.936ZM148.238 124.051V125.389H138.391V121.453H139.823V124.051H148.238ZM155.439 115.402V116.724H149.372V115.402H151.705V113.551H153.105V115.402H155.439ZM160.588 125.529H159.281V119.742H157.539V125.327H156.248V113.644H157.539V118.358H159.281V113.582H160.588V125.529ZM152.468 117.627C152.986 117.627 153.442 117.772 153.836 118.062C154.241 118.342 154.557 118.757 154.785 119.307C155.013 119.856 155.128 120.52 155.128 121.298C155.128 122.076 155.013 122.739 154.785 123.289C154.557 123.839 154.241 124.259 153.836 124.549C153.442 124.829 152.986 124.969 152.468 124.969C151.679 124.969 151.042 124.653 150.554 124.02C150.067 123.377 149.823 122.47 149.823 121.298C149.823 120.126 150.067 119.224 150.554 118.591C151.042 117.948 151.679 117.627 152.468 117.627ZM152.468 123.678C152.872 123.678 153.199 123.47 153.448 123.056C153.707 122.63 153.836 122.044 153.836 121.298C153.836 120.551 153.707 119.965 153.448 119.54C153.199 119.115 152.872 118.902 152.468 118.902C152.063 118.902 151.731 119.115 151.472 119.54C151.223 119.965 151.099 120.551 151.099 121.298C151.099 122.044 151.223 122.63 151.472 123.056C151.731 123.47 152.063 123.678 152.468 123.678ZM173.295 124.969H161.939V123.584H166.901V120.971H162.686V113.924H164.07V116.009H171.164V113.924H172.548V120.971H168.317V123.584H173.295V124.969ZM171.164 119.649V117.331H164.07V119.649H171.164ZM185.224 125.529H183.887V113.582H185.224V125.529ZM182.347 113.644V125.327H181.009V119.027H179.267V117.627H181.009V113.644H182.347ZM178.069 113.909C178.069 115.817 177.986 117.45 177.82 118.809L180.542 124.051L179.391 124.673L177.4 120.847C177.109 122.029 176.715 122.947 176.218 123.6C175.72 124.253 175.098 124.663 174.351 124.829V123.336C175.191 123.056 175.792 122.112 176.155 120.504C176.529 118.897 176.721 116.683 176.731 113.862L178.069 113.909ZM197.932 124.969H186.576V123.616H189.143V120.411C188.5 120.1 188.002 119.69 187.649 119.182C187.297 118.664 187.12 118.073 187.12 117.409C187.12 116.683 187.333 116.045 187.758 115.496C188.183 114.946 188.78 114.521 189.547 114.22C190.325 113.919 191.227 113.769 192.254 113.769C193.28 113.769 194.177 113.919 194.945 114.22C195.723 114.521 196.324 114.946 196.749 115.496C197.174 116.045 197.387 116.683 197.387 117.409C197.387 118.073 197.211 118.664 196.858 119.182C196.506 119.69 196.008 120.1 195.365 120.411V123.616H197.932V124.969ZM192.254 115.107C191.528 115.107 190.89 115.205 190.34 115.402C189.791 115.589 189.36 115.859 189.049 116.211C188.749 116.553 188.598 116.953 188.598 117.409C188.598 117.865 188.749 118.27 189.049 118.622C189.36 118.975 189.791 119.25 190.34 119.447C190.9 119.633 191.538 119.727 192.254 119.727C192.98 119.727 193.617 119.633 194.167 119.447C194.717 119.25 195.142 118.98 195.443 118.638C195.754 118.285 195.909 117.876 195.909 117.409C195.909 116.714 195.572 116.159 194.898 115.744C194.234 115.319 193.353 115.107 192.254 115.107ZM193.965 123.616V120.878C193.498 120.992 192.928 121.049 192.254 121.049C191.59 121.049 191.025 120.992 190.558 120.878V123.616H193.965ZM200.17 117.378C199.89 117.378 199.651 117.279 199.454 117.082C199.257 116.885 199.159 116.641 199.159 116.351C199.159 116.061 199.257 115.822 199.454 115.636C199.651 115.449 199.89 115.356 200.17 115.356C200.45 115.356 200.688 115.449 200.885 115.636C201.082 115.822 201.181 116.061 201.181 116.351C201.181 116.641 201.082 116.885 200.885 117.082C200.688 117.279 200.45 117.378 200.17 117.378ZM200.17 123.74C199.89 123.74 199.651 123.647 199.454 123.46C199.257 123.263 199.159 123.019 199.159 122.729C199.159 122.439 199.257 122.2 199.454 122.013C199.651 121.816 199.89 121.718 200.17 121.718C200.45 121.718 200.688 121.816 200.885 122.013C201.082 122.2 201.181 122.439 201.181 122.729C201.181 123.019 201.082 123.263 200.885 123.46C200.688 123.647 200.45 123.74 200.17 123.74Z" fill="#364153"/>
<path d="M54.1522 149.057C53.8441 149.057 53.5841 148.951 53.3722 148.739C53.1604 148.517 53.0544 148.253 53.0544 147.944C53.0544 147.627 53.1604 147.362 53.3722 147.15C53.5841 146.938 53.8441 146.832 54.1522 146.832C54.4507 146.832 54.7059 146.938 54.9178 147.15C55.1393 147.362 55.25 147.627 55.25 147.944C55.25 148.253 55.1393 148.517 54.9178 148.739C54.7059 148.951 54.4507 149.057 54.1522 149.057ZM64.2735 153.101C63.0216 153.101 62.0442 152.726 61.3413 151.974C60.6479 151.214 60.3013 150.116 60.3013 148.681V142.889H61.3557V148.638C61.3557 149.813 61.6061 150.689 62.1068 151.267C62.6076 151.844 63.3298 152.133 64.2735 152.133C65.2172 152.133 65.9394 151.844 66.4402 151.267C66.9409 150.689 67.1913 149.813 67.1913 148.638V142.889H68.2168V148.681C68.2168 150.116 67.8702 151.214 67.1768 151.974C66.4931 152.726 65.5253 153.101 64.2735 153.101ZM74.7839 149.736C74.5816 149.774 74.3361 149.793 74.0472 149.793H71.4905V153H70.4505V142.889H74.0472C75.2798 142.889 76.2427 143.197 76.9361 143.813C77.639 144.42 77.9905 145.263 77.9905 146.341C77.9905 147.14 77.7979 147.814 77.4127 148.363C77.0372 148.903 76.4979 149.288 75.795 149.519L78.1494 153H76.9794L74.7839 149.736ZM74.0183 148.883C74.962 148.883 75.6842 148.667 76.185 148.233C76.6857 147.79 76.9361 147.16 76.9361 146.341C76.9361 145.532 76.6857 144.911 76.185 144.478C75.6842 144.044 74.962 143.828 74.0183 143.828H71.4905V148.883H74.0183ZM80.98 142.889V152.061H86.3389V153H79.94V142.889H80.98ZM94.554 145.821C94.0532 146.505 93.3984 147.054 92.5895 147.468C91.7806 147.882 90.8947 148.132 89.9317 148.219V147.208C91.0584 147.102 92.0262 146.741 92.8351 146.124C93.644 145.499 94.1543 144.694 94.3662 143.712H90.1917V142.716H99.4651V143.712H95.4784C95.4206 144.155 95.2954 144.579 95.1028 144.983L99.7828 147.251L99.3351 148.161L94.554 145.821ZM95.334 150.516V153.751H94.2795V150.516H89.5706V149.504H100.086V150.516H95.334ZM106.122 145.908C105.516 146.909 104.779 147.704 103.912 148.291C103.046 148.879 102.145 149.172 101.211 149.172V148.132C101.972 148.132 102.704 147.882 103.407 147.381C104.11 146.871 104.712 146.182 105.212 145.316C105.723 144.449 106.074 143.496 106.267 142.456L107.336 142.672C107.182 143.491 106.931 144.276 106.585 145.027L111.236 148.349L110.672 149.201L106.122 145.908ZM111.525 151.902V152.928H101.009V151.902H105.732V148.652H106.787V151.902H111.525ZM121.938 148.031V153.491H120.898V142.398H121.938V146.991H123.469V148.031H121.938ZM118.543 142.831V145.431C118.543 146.895 118.317 148.18 117.864 149.288C117.412 150.395 116.757 151.252 115.9 151.859C115.043 152.466 114.027 152.769 112.852 152.769V151.729C113.825 151.729 114.658 151.474 115.351 150.963C116.054 150.453 116.588 149.726 116.954 148.782C117.32 147.839 117.503 146.736 117.503 145.474V143.828H112.852V142.831H118.543ZM135.568 142.398H136.608V148.638H135.568V145.518H133.401V144.564H135.568V142.398ZM130.426 145.98C130.079 146.616 129.607 147.136 129.01 147.54C128.413 147.935 127.73 148.18 126.959 148.277V147.294C127.864 147.15 128.582 146.76 129.111 146.124C129.651 145.479 129.959 144.656 130.036 143.654H127.089V142.716H133.835V143.654H131.09C131.061 144.184 130.975 144.666 130.83 145.099L134.181 147.352L133.647 148.176L130.426 145.98ZM132.188 149.042C133.546 149.042 134.634 149.225 135.452 149.591C136.281 149.947 136.695 150.501 136.695 151.252C136.695 152.003 136.281 152.562 135.452 152.928C134.634 153.284 133.546 153.462 132.188 153.462C130.83 153.462 129.742 153.284 128.924 152.928C128.105 152.562 127.696 152.003 127.696 151.252C127.696 150.501 128.105 149.947 128.924 149.591C129.742 149.225 130.83 149.042 132.188 149.042ZM132.188 152.552C133.199 152.552 134.018 152.441 134.644 152.22C135.279 151.999 135.597 151.676 135.597 151.252C135.597 150.829 135.279 150.506 134.644 150.284C134.008 150.063 133.19 149.952 132.188 149.952C131.187 149.952 130.368 150.063 129.732 150.284C129.107 150.506 128.794 150.829 128.794 151.252C128.794 151.676 129.107 151.999 129.732 152.22C130.368 152.441 131.187 152.552 132.188 152.552ZM138.239 144.146V143.308H141.185V142.094H142.24V143.308H145.288V144.146H138.239ZM147.7 146.486V149.996H146.66V142.398H147.7V145.46H149.202V146.486H147.7ZM145.707 149.288C145.389 149.432 144.907 149.543 144.262 149.62C143.617 149.687 142.875 149.721 142.038 149.721H138.181V148.869H141.214V147.988C140.444 147.94 139.837 147.771 139.394 147.482C138.951 147.184 138.73 146.808 138.73 146.356C138.73 145.845 138.999 145.441 139.539 145.142C140.088 144.844 140.824 144.694 141.749 144.694C142.664 144.694 143.391 144.844 143.93 145.142C144.479 145.441 144.753 145.845 144.753 146.356C144.753 146.808 144.532 147.184 144.089 147.482C143.646 147.771 143.029 147.944 142.24 148.002V148.869C143.935 148.85 145.09 148.7 145.707 148.421V149.288ZM139.712 146.356C139.712 146.616 139.895 146.827 140.261 146.991C140.637 147.145 141.132 147.222 141.749 147.222C142.355 147.222 142.842 147.145 143.208 146.991C143.583 146.827 143.771 146.616 143.771 146.356C143.771 146.105 143.583 145.898 143.208 145.734C142.842 145.571 142.355 145.489 141.749 145.489C141.132 145.489 140.637 145.571 140.261 145.734C139.895 145.898 139.712 146.105 139.712 146.356ZM147.7 150.646V153.462H146.645V151.512H138.903V150.646H147.7ZM149.605 144.42V143.51H152.653V142.196H153.707V143.51H156.755V144.42H149.605ZM160.641 146.572H159.109V150.718H158.069V142.398H159.109V145.532H160.641V146.572ZM153.187 149.649C152.282 149.649 151.536 149.447 150.948 149.042C150.371 148.638 150.082 148.084 150.082 147.381C150.082 146.678 150.371 146.124 150.948 145.72C151.536 145.316 152.282 145.113 153.187 145.113C154.092 145.113 154.834 145.316 155.412 145.72C155.989 146.124 156.278 146.678 156.278 147.381C156.278 148.084 155.989 148.638 155.412 149.042C154.834 149.447 154.092 149.649 153.187 149.649ZM153.187 145.966C152.552 145.966 152.041 146.1 151.656 146.37C151.281 146.63 151.093 146.967 151.093 147.381C151.093 147.795 151.281 148.137 151.656 148.407C152.041 148.667 152.552 148.797 153.187 148.797C153.813 148.797 154.314 148.667 154.689 148.407C155.075 148.137 155.267 147.795 155.267 147.381C155.267 146.967 155.075 146.63 154.689 146.37C154.314 146.1 153.813 145.966 153.187 145.966ZM159.427 152.35V153.318H150.371V150.357H151.425V152.35H159.427ZM170.851 153.491H169.797V142.398H170.851V153.491ZM165.478 143.842C165.468 145.171 165.358 146.399 165.146 147.526L168.656 152.047L167.832 152.697L164.813 148.739C164.467 149.933 163.995 150.881 163.398 151.584C162.801 152.278 162.108 152.682 161.318 152.798V151.714C161.953 151.58 162.502 151.161 162.965 150.458C163.427 149.745 163.783 148.821 164.033 147.684C164.284 146.539 164.419 145.258 164.438 143.842H161.549V142.831H168.28V143.842H165.478ZM175.411 144.146V143.308H178.357V142.094H179.412V143.308H182.46V144.146H175.411ZM184.872 146.486V149.996H183.832V142.398H184.872V145.46H186.374V146.486H184.872ZM182.878 149.288C182.561 149.432 182.079 149.543 181.434 149.62C180.789 149.687 180.047 149.721 179.21 149.721H175.353V148.869H178.386V147.988C177.616 147.94 177.009 147.771 176.566 147.482C176.123 147.184 175.902 146.808 175.902 146.356C175.902 145.845 176.171 145.441 176.711 145.142C177.26 144.844 177.996 144.694 178.921 144.694C179.835 144.694 180.562 144.844 181.102 145.142C181.651 145.441 181.925 145.845 181.925 146.356C181.925 146.808 181.704 147.184 181.261 147.482C180.818 147.771 180.201 147.944 179.412 148.002V148.869C181.107 148.85 182.262 148.7 182.878 148.421V149.288ZM176.884 146.356C176.884 146.616 177.067 146.827 177.433 146.991C177.808 147.145 178.304 147.222 178.921 147.222C179.527 147.222 180.014 147.145 180.38 146.991C180.755 146.827 180.943 146.616 180.943 146.356C180.943 146.105 180.755 145.898 180.38 145.734C180.014 145.571 179.527 145.489 178.921 145.489C178.304 145.489 177.808 145.571 177.433 145.734C177.067 145.898 176.884 146.105 176.884 146.356ZM184.872 150.646V153.462H183.817V151.512H176.075V150.646H184.872ZM195.53 150.646V142.398H196.585V150.646H195.53ZM190.244 142.528C190.918 142.528 191.505 142.667 192.006 142.947C192.507 143.216 192.887 143.597 193.147 144.088C193.417 144.569 193.551 145.118 193.551 145.734C193.551 146.351 193.417 146.904 193.147 147.396C192.887 147.877 192.507 148.257 192.006 148.537C191.505 148.806 190.918 148.941 190.244 148.941C189.569 148.941 188.982 148.806 188.481 148.537C187.981 148.257 187.595 147.877 187.326 147.396C187.056 146.904 186.921 146.351 186.921 145.734C186.921 145.118 187.056 144.569 187.326 144.088C187.595 143.597 187.981 143.216 188.481 142.947C188.982 142.667 189.569 142.528 190.244 142.528ZM190.244 143.452C189.56 143.452 189.011 143.659 188.597 144.073C188.183 144.487 187.976 145.041 187.976 145.734C187.976 146.428 188.183 146.981 188.597 147.396C189.011 147.8 189.56 148.002 190.244 148.002C190.927 148.002 191.476 147.8 191.89 147.396C192.304 146.981 192.511 146.428 192.511 145.734C192.511 145.041 192.304 144.487 191.89 144.073C191.476 143.659 190.927 143.452 190.244 143.452ZM196.888 152.321V153.318H187.846V149.736H188.9V152.321H196.888Z" fill="#4A5565"/>
<path d="M54.1522 172.557C53.8441 172.557 53.5841 172.451 53.3722 172.239C53.1604 172.017 53.0544 171.753 53.0544 171.444C53.0544 171.127 53.1604 170.862 53.3722 170.65C53.5841 170.438 53.8441 170.332 54.1522 170.332C54.4507 170.332 54.7059 170.438 54.9178 170.65C55.1393 170.862 55.25 171.127 55.25 171.444C55.25 171.753 55.1393 172.017 54.9178 172.239C54.7059 172.451 54.4507 172.557 54.1522 172.557ZM69.1124 169.364V172.528H68.0724V165.898H69.1124V168.324H70.6435V169.364H69.1124ZM63.1035 169.61C62.7376 170.294 62.2561 170.862 61.659 171.314C61.0716 171.767 60.4072 172.051 59.6657 172.167V171.156C60.3302 171.021 60.9079 170.708 61.399 170.217C61.8998 169.716 62.2802 169.1 62.5402 168.368C62.8002 167.636 62.9302 166.851 62.9302 166.013L63.9846 166.071C63.9846 167.044 63.8353 167.92 63.5368 168.7L66.9168 171.228L66.3102 172.022L63.1035 169.61ZM69.1124 173.178V176.962H68.0579V174.146H60.2724V173.178H69.1124ZM81.1431 176.991H80.1464V165.898H81.1431V176.991ZM78.3842 165.956V176.803H77.402V171.199H75.6542V170.173H77.402V165.956H78.3842ZM74.3686 167.328C74.3494 168.714 74.282 169.884 74.1664 170.838L76.752 175.648L75.9142 176.153L73.892 172.311C73.4009 174.68 72.4957 176.009 71.1764 176.298V175.229C71.889 174.998 72.4283 174.189 72.7942 172.802C73.1601 171.406 73.3479 169.581 73.3575 167.328H71.3497V166.331H76.3042V167.328H74.3686ZM92.3071 176.991H91.2671V165.898H92.3071V176.991ZM86.7171 175.272C88.4119 175.272 89.6156 175.113 90.3282 174.796V175.821C89.5867 176.139 88.3879 176.298 86.7316 176.298H82.4993V175.272H85.6193V172.311H83.1493V166.346H89.2449V167.357H84.1893V171.314H89.3749V172.311H86.6593V175.272H86.7171ZM103.803 176.991H102.763V171.517H99.8311C99.4748 173.009 98.8297 174.174 97.8956 175.012C96.9615 175.85 95.8011 176.269 94.4145 176.269V175.229C95.3774 175.229 96.2056 174.974 96.8989 174.463C97.6019 173.953 98.1363 173.226 98.5023 172.282C98.8682 171.339 99.0511 170.236 99.0511 168.974V167.328H94.4145V166.331H100.106V168.931C100.106 169.451 100.067 169.971 99.99 170.491H102.763V165.898H103.803V176.991ZM114.866 171.531V176.991H113.826V165.898H114.866V170.491H116.397V171.531H114.866ZM110.085 175.287C110.586 175.287 111.087 175.239 111.587 175.142C112.088 175.046 112.497 174.921 112.815 174.767V175.763C112.507 175.937 112.103 176.071 111.602 176.168C111.101 176.254 110.591 176.298 110.071 176.298H105.911V166.259H106.965V175.287H110.085ZM128.41 176.991V165.898H129.465V176.991H128.41ZM123.326 166.187C124.289 166.187 125.054 166.62 125.622 167.487C126.2 168.353 126.489 169.629 126.489 171.314C126.489 173 126.2 174.276 125.622 175.142C125.054 176.009 124.289 176.442 123.326 176.442C122.363 176.442 121.592 176.009 121.015 175.142C120.446 174.276 120.162 173 120.162 171.314C120.162 169.629 120.446 168.353 121.015 167.487C121.592 166.62 122.363 166.187 123.326 166.187ZM123.326 167.183C122.68 167.183 122.165 167.53 121.78 168.223C121.395 168.907 121.202 169.937 121.202 171.314C121.202 172.701 121.395 173.736 121.78 174.42C122.165 175.104 122.68 175.446 123.326 175.446C123.952 175.446 124.462 175.104 124.857 174.42C125.252 173.727 125.449 172.691 125.449 171.314C125.449 169.947 125.252 168.917 124.857 168.223C124.462 167.53 123.952 167.183 123.326 167.183ZM141.625 171.979H131.11V171.083H135.847V169.812H131.904V166.057H140.845V166.952H132.944V168.917H140.961V169.812H136.887V171.083H141.625V171.979ZM136.367 173.004C137.735 173.004 138.842 173.163 139.69 173.481C140.547 173.789 140.975 174.295 140.975 174.998C140.975 175.701 140.547 176.211 139.69 176.529C138.842 176.847 137.735 177.006 136.367 177.006C135 177.006 133.888 176.847 133.031 176.529C132.183 176.211 131.76 175.701 131.76 174.998C131.76 174.295 132.183 173.789 133.031 173.481C133.888 173.163 135 173.004 136.367 173.004ZM136.367 176.124C137.359 176.124 138.192 176.038 138.866 175.864C139.54 175.681 139.877 175.393 139.877 174.998C139.877 174.613 139.54 174.333 138.866 174.16C138.192 173.977 137.359 173.886 136.367 173.886C135.376 173.886 134.538 173.977 133.854 174.16C133.18 174.333 132.843 174.613 132.843 174.998C132.843 175.393 133.18 175.681 133.854 175.864C134.528 176.038 135.366 176.124 136.367 176.124ZM151.316 174.348V165.898H152.356V174.348H151.316ZM150.377 172.499C149.741 172.797 148.528 172.947 146.737 172.947H142.548V172.022H145.697V170.404H143.198V166.143H149.294V167.039H144.238V169.509H149.424V170.404H146.737V172.022C148.499 172.022 149.713 171.873 150.377 171.574V172.499ZM152.659 176.818H143.501V173.871H144.556V175.864H152.659V176.818ZM166.925 176.991H165.943V165.898H166.925V176.991ZM164.528 165.956V176.803H163.56V171.517H162.173V170.491H163.56V165.956H164.528ZM161.321 175.186C161.86 175.118 162.337 174.974 162.751 174.752V175.763C162.067 176.12 160.883 176.298 159.198 176.298H156.8V175.316H157.811V167.313H156.858V166.331H162.303V167.313H161.321V175.186ZM158.764 175.316C159.496 175.316 160.03 175.306 160.368 175.287V167.313H158.764V175.316ZM177.02 176.991V165.898H178.075V176.991H177.02ZM171.936 166.187C172.899 166.187 173.665 166.62 174.233 167.487C174.81 168.353 175.099 169.629 175.099 171.314C175.099 173 174.81 174.276 174.233 175.142C173.665 176.009 172.899 176.442 171.936 176.442C170.973 176.442 170.203 176.009 169.625 175.142C169.057 174.276 168.773 173 168.773 171.314C168.773 169.629 169.057 168.353 169.625 167.487C170.203 166.62 170.973 166.187 171.936 166.187ZM171.936 167.183C171.291 167.183 170.776 167.53 170.39 168.223C170.005 168.907 169.813 169.937 169.813 171.314C169.813 172.701 170.005 173.736 170.39 174.42C170.776 175.104 171.291 175.446 171.936 175.446C172.562 175.446 173.072 175.104 173.467 174.42C173.862 173.727 174.059 172.691 174.059 171.314C174.059 169.947 173.862 168.917 173.467 168.223C173.072 167.53 172.562 167.183 171.936 167.183ZM189.513 176.991H188.459V165.898H189.513V176.991ZM184.14 167.342C184.13 168.671 184.02 169.899 183.808 171.026L187.318 175.547L186.494 176.197L183.476 172.239C183.129 173.433 182.657 174.381 182.06 175.084C181.463 175.778 180.77 176.182 179.98 176.298V175.214C180.616 175.08 181.164 174.661 181.627 173.958C182.089 173.245 182.445 172.321 182.696 171.184C182.946 170.039 183.081 168.758 183.1 167.342H180.211V166.331H186.942V167.342H184.14ZM199.897 174.146V165.898H200.952V174.146H199.897ZM194.611 166.028C195.285 166.028 195.872 166.167 196.373 166.447C196.874 166.716 197.254 167.097 197.514 167.588C197.784 168.069 197.919 168.618 197.919 169.234C197.919 169.851 197.784 170.404 197.514 170.896C197.254 171.377 196.874 171.757 196.373 172.037C195.872 172.306 195.285 172.441 194.611 172.441C193.937 172.441 193.349 172.306 192.849 172.037C192.348 171.757 191.963 171.377 191.693 170.896C191.423 170.404 191.289 169.851 191.289 169.234C191.289 168.618 191.423 168.069 191.693 167.588C191.963 167.097 192.348 166.716 192.849 166.447C193.349 166.167 193.937 166.028 194.611 166.028ZM194.611 166.952C193.927 166.952 193.378 167.159 192.964 167.573C192.55 167.987 192.343 168.541 192.343 169.234C192.343 169.928 192.55 170.481 192.964 170.896C193.378 171.3 193.927 171.502 194.611 171.502C195.294 171.502 195.843 171.3 196.257 170.896C196.671 170.481 196.879 169.928 196.879 169.234C196.879 168.541 196.671 167.987 196.257 167.573C195.843 167.159 195.294 166.952 194.611 166.952ZM201.255 175.821V176.818H192.213V173.236H193.267V175.821H201.255ZM212.39 176.991H211.336V165.898H212.39V176.991ZM207.017 167.342C207.007 168.671 206.897 169.899 206.685 171.026L210.195 175.547L209.371 176.197L206.353 172.239C206.006 173.433 205.534 174.381 204.937 175.084C204.34 175.778 203.647 176.182 202.857 176.298V175.214C203.493 175.08 204.041 174.661 204.504 173.958C204.966 173.245 205.322 172.321 205.573 171.184C205.823 170.039 205.958 168.758 205.977 167.342H203.088V166.331H209.819V167.342H207.017ZM216.95 167.646V166.808H219.896V165.594H220.951V166.808H223.999V167.646H216.95ZM226.411 169.986V173.496H225.371V165.898H226.411V168.96H227.913V169.986H226.411ZM224.417 172.788C224.1 172.932 223.618 173.043 222.973 173.12C222.328 173.187 221.586 173.221 220.749 173.221H216.892V172.369H219.925V171.488C219.155 171.44 218.548 171.271 218.105 170.982C217.662 170.684 217.441 170.308 217.441 169.856C217.441 169.345 217.71 168.941 218.25 168.642C218.799 168.344 219.535 168.194 220.46 168.194C221.375 168.194 222.102 168.344 222.641 168.642C223.19 168.941 223.464 169.345 223.464 169.856C223.464 170.308 223.243 170.684 222.8 170.982C222.357 171.271 221.74 171.444 220.951 171.502V172.369C222.646 172.35 223.801 172.2 224.417 171.921V172.788ZM218.423 169.856C218.423 170.116 218.606 170.327 218.972 170.491C219.347 170.645 219.843 170.722 220.46 170.722C221.066 170.722 221.553 170.645 221.919 170.491C222.294 170.327 222.482 170.116 222.482 169.856C222.482 169.605 222.294 169.398 221.919 169.234C221.553 169.071 221.066 168.989 220.46 168.989C219.843 168.989 219.347 169.071 218.972 169.234C218.606 169.398 218.423 169.605 218.423 169.856ZM226.411 174.146V176.962H225.356V175.012H217.614V174.146H226.411ZM237.069 174.146V165.898H238.124V174.146H237.069ZM231.783 166.028C232.457 166.028 233.044 166.167 233.545 166.447C234.046 166.716 234.426 167.097 234.686 167.588C234.956 168.069 235.09 168.618 235.09 169.234C235.09 169.851 234.956 170.404 234.686 170.896C234.426 171.377 234.046 171.757 233.545 172.037C233.044 172.306 232.457 172.441 231.783 172.441C231.109 172.441 230.521 172.306 230.02 172.037C229.52 171.757 229.134 171.377 228.865 170.896C228.595 170.404 228.46 169.851 228.46 169.234C228.46 168.618 228.595 168.069 228.865 167.588C229.134 167.097 229.52 166.716 230.02 166.447C230.521 166.167 231.109 166.028 231.783 166.028ZM231.783 166.952C231.099 166.952 230.55 167.159 230.136 167.573C229.722 167.987 229.515 168.541 229.515 169.234C229.515 169.928 229.722 170.481 230.136 170.896C230.55 171.3 231.099 171.502 231.783 171.502C232.466 171.502 233.015 171.3 233.429 170.896C233.843 170.481 234.05 169.928 234.05 169.234C234.05 168.541 233.843 167.987 233.429 167.573C233.015 167.159 232.466 166.952 231.783 166.952ZM238.427 175.821V176.818H229.385V173.236H230.439V175.821H238.427Z" fill="#4A5565"/>
<path d="M54.1522 196.057C53.8441 196.057 53.5841 195.951 53.3722 195.739C53.1604 195.517 53.0544 195.253 53.0544 194.944C53.0544 194.627 53.1604 194.362 53.3722 194.15C53.5841 193.938 53.8441 193.832 54.1522 193.832C54.4507 193.832 54.7059 193.938 54.9178 194.15C55.1393 194.362 55.25 194.627 55.25 194.944C55.25 195.253 55.1393 195.517 54.9178 195.739C54.7059 195.951 54.4507 196.057 54.1522 196.057ZM60.4168 193.991V189.484H61.4424V190.857H68.3179V189.484H69.3579V193.991H60.4168ZM68.3179 191.694H61.4424V193.124H68.3179V191.694ZM65.4002 197.328H69.3724V200.477H68.3324V198.223H60.2868V197.328H64.3602V196.013H59.6224V195.089H70.1379V196.013H65.4002V197.328ZM80.5509 195.031V200.491H79.5109V189.398H80.5509V193.991H82.082V195.031H80.5509ZM77.402 189.831V199.798H71.5953V189.831H77.402ZM76.362 198.787V190.842H72.6353V198.787H76.362ZM83.2071 194.959V193.948H91.1516V190.857H83.2071V189.831H92.1771V197.776H91.1516V194.959H83.2071ZM93.0149 199.928H82.4993V198.902H93.0149V199.928ZM103.428 195.031V200.491H102.388V189.398H103.428V193.991H104.959V195.031H103.428ZM100.033 189.831V192.431C100.033 193.895 99.8071 195.18 99.3545 196.288C98.9019 197.395 98.2471 198.252 97.39 198.859C96.533 199.466 95.5171 199.769 94.3423 199.769V198.729C95.3148 198.729 96.1478 198.474 96.8411 197.963C97.5441 197.453 98.0785 196.726 98.4445 195.782C98.8104 194.839 98.9934 193.736 98.9934 192.474V190.828H94.3423V189.831H100.033ZM118.748 199.928H108.233V198.902H112.956V196.36C112.118 196.312 111.382 196.143 110.746 195.854C110.12 195.556 109.634 195.166 109.287 194.684C108.95 194.193 108.782 193.635 108.782 193.009C108.782 192.335 108.974 191.743 109.359 191.232C109.754 190.722 110.303 190.327 111.006 190.048C111.719 189.769 112.547 189.629 113.491 189.629C114.434 189.629 115.258 189.769 115.961 190.048C116.673 190.327 117.222 190.722 117.607 191.232C118.002 191.743 118.199 192.335 118.199 193.009C118.199 193.635 118.026 194.193 117.679 194.684C117.342 195.166 116.856 195.556 116.221 195.854C115.585 196.143 114.848 196.312 114.011 196.36V198.902H118.748V199.928ZM109.865 193.009C109.865 193.481 110.014 193.895 110.313 194.251C110.611 194.607 111.035 194.887 111.584 195.089C112.133 195.281 112.768 195.378 113.491 195.378C114.213 195.378 114.848 195.281 115.397 195.089C115.946 194.887 116.37 194.607 116.668 194.251C116.967 193.895 117.116 193.481 117.116 193.009C117.116 192.537 116.967 192.123 116.668 191.767C116.37 191.401 115.946 191.121 115.397 190.929C114.848 190.727 114.213 190.626 113.491 190.626C112.768 190.626 112.133 190.727 111.584 190.929C111.035 191.121 110.611 191.401 110.313 191.767C110.014 192.123 109.865 192.537 109.865 193.009ZM129.753 200.491H128.757V194.988H126.85V200.303H125.868V189.456H126.85V193.948H128.757V189.398H129.753V200.491ZM121.852 198.844C122.546 198.844 123.148 198.801 123.658 198.714C124.168 198.618 124.626 198.474 125.03 198.281V199.278C124.308 199.624 123.249 199.798 121.852 199.798H120.032V194.251H123.253V190.784H120.032V189.831H124.236V195.204H121.015V198.844H121.852ZM139.877 197.848V189.398H140.917V197.848H139.877ZM138.939 195.999C138.303 196.297 137.09 196.447 135.299 196.447H131.11V195.522H134.259V193.904H131.76V189.643H137.855V190.539H132.8V193.009H137.985V193.904H135.299V195.522C137.061 195.522 138.274 195.373 138.939 195.074V195.999ZM141.221 200.318H132.063V197.371H133.117V199.364H141.221V200.318ZM151.356 193.211C150.932 194.097 150.239 194.761 149.276 195.204C148.322 195.647 147.152 195.869 145.766 195.869V194.858C147.326 194.858 148.544 194.55 149.42 193.933C150.306 193.317 150.749 192.421 150.749 191.247V190.669H145.766V189.701H151.803V191.117C151.803 191.502 151.76 191.868 151.673 192.214H154.23V189.398H155.27V197.01H154.23V193.211H151.356ZM150.763 198.166C150.234 198.83 149.565 199.355 148.756 199.74C147.956 200.116 147.128 200.308 146.271 200.318V199.292C146.945 199.283 147.595 199.138 148.221 198.859C148.857 198.57 149.401 198.17 149.853 197.66C150.306 197.15 150.605 196.562 150.749 195.898L151.803 196.086C151.688 196.577 151.534 197 151.341 197.357L155.747 199.509L155.313 200.462L150.763 198.166ZM165.582 197.646V189.398H166.636V197.646H165.582ZM160.295 189.528C160.969 189.528 161.557 189.667 162.058 189.947C162.558 190.216 162.939 190.597 163.199 191.088C163.468 191.569 163.603 192.118 163.603 192.734C163.603 193.351 163.468 193.904 163.199 194.396C162.939 194.877 162.558 195.257 162.058 195.537C161.557 195.806 160.969 195.941 160.295 195.941C159.621 195.941 159.034 195.806 158.533 195.537C158.032 195.257 157.647 194.877 157.378 194.396C157.108 193.904 156.973 193.351 156.973 192.734C156.973 192.118 157.108 191.569 157.378 191.088C157.647 190.597 158.032 190.216 158.533 189.947C159.034 189.667 159.621 189.528 160.295 189.528ZM160.295 190.452C159.612 190.452 159.063 190.659 158.649 191.073C158.235 191.487 158.028 192.041 158.028 192.734C158.028 193.428 158.235 193.981 158.649 194.396C159.063 194.8 159.612 195.002 160.295 195.002C160.979 195.002 161.528 194.8 161.942 194.396C162.356 193.981 162.563 193.428 162.563 192.734C162.563 192.041 162.356 191.487 161.942 191.073C161.528 190.659 160.979 190.452 160.295 190.452ZM166.94 199.321V200.318H157.898V196.736H158.952V199.321H166.94ZM178.075 200.491H177.02V189.398H178.075V200.491ZM172.702 190.842C172.692 192.171 172.581 193.399 172.369 194.526L175.879 199.047L175.056 199.697L172.037 195.739C171.69 196.933 171.219 197.881 170.622 198.584C170.025 199.278 169.331 199.682 168.542 199.798V198.714C169.177 198.58 169.726 198.161 170.188 197.458C170.65 196.745 171.007 195.821 171.257 194.684C171.507 193.539 171.642 192.258 171.662 190.842H168.773V189.831H175.504V190.842H172.702ZM182.634 191.146V190.308H185.581V189.094H186.635V190.308H189.683V191.146H182.634ZM192.095 193.486V196.996H191.055V189.398H192.095V192.46H193.598V193.486H192.095ZM190.102 196.288C189.784 196.432 189.303 196.543 188.658 196.62C188.012 196.687 187.271 196.721 186.433 196.721H182.576V195.869H185.61V194.988C184.839 194.94 184.233 194.771 183.79 194.482C183.347 194.184 183.125 193.808 183.125 193.356C183.125 192.845 183.395 192.441 183.934 192.142C184.483 191.844 185.22 191.694 186.144 191.694C187.059 191.694 187.786 191.844 188.325 192.142C188.874 192.441 189.149 192.845 189.149 193.356C189.149 193.808 188.927 194.184 188.484 194.482C188.041 194.771 187.425 194.944 186.635 195.002V195.869C188.33 195.85 189.486 195.7 190.102 195.421V196.288ZM184.108 193.356C184.108 193.616 184.291 193.827 184.656 193.991C185.032 194.145 185.528 194.222 186.144 194.222C186.751 194.222 187.237 194.145 187.603 193.991C187.979 193.827 188.166 193.616 188.166 193.356C188.166 193.105 187.979 192.898 187.603 192.734C187.237 192.571 186.751 192.489 186.144 192.489C185.528 192.489 185.032 192.571 184.656 192.734C184.291 192.898 184.108 193.105 184.108 193.356ZM192.095 197.646V200.462H191.041V198.512H183.299V197.646H192.095ZM202.754 197.646V189.398H203.808V197.646H202.754ZM197.467 189.528C198.141 189.528 198.729 189.667 199.229 189.947C199.73 190.216 200.111 190.597 200.371 191.088C200.64 191.569 200.775 192.118 200.775 192.734C200.775 193.351 200.64 193.904 200.371 194.396C200.111 194.877 199.73 195.257 199.229 195.537C198.729 195.806 198.141 195.941 197.467 195.941C196.793 195.941 196.206 195.806 195.705 195.537C195.204 195.257 194.819 194.877 194.549 194.396C194.28 193.904 194.145 193.351 194.145 192.734C194.145 192.118 194.28 191.569 194.549 191.088C194.819 190.597 195.204 190.216 195.705 189.947C196.206 189.667 196.793 189.528 197.467 189.528ZM197.467 190.452C196.783 190.452 196.235 190.659 195.821 191.073C195.406 191.487 195.199 192.041 195.199 192.734C195.199 193.428 195.406 193.981 195.821 194.396C196.235 194.8 196.783 195.002 197.467 195.002C198.151 195.002 198.7 194.8 199.114 194.396C199.528 193.981 199.735 193.428 199.735 192.734C199.735 192.041 199.528 191.487 199.114 191.073C198.7 190.659 198.151 190.452 197.467 190.452ZM204.112 199.321V200.318H195.069V196.736H196.124V199.321H204.112Z" fill="#4A5565"/>
</g>
<defs>
<filter id="filter0_d_476_1607" x="0" y="0" width="624" height="260.5" filterUnits="userSpaceOnUse" color-interpolation-filters="sRGB">
<feFlood flood-opacity="0" result="BackgroundImageFix"/>
<feColorMatrix in="SourceAlpha" type="matrix" values="0 0 0 0 0 0 0 0 0 0 0 0 0 0 0 0 0 0 127 0" result="hardAlpha"/>
<feOffset dy="4"/>
<feGaussianBlur stdDeviation="6"/>
<feComposite in2="hardAlpha" operator="out"/>
<feColorMatrix type="matrix" values="0 0 0 0 0 0 0 0 0 0 0 0 0 0 0 0 0 0 0.06 0"/>
<feBlend mode="normal" in2="BackgroundImageFix" result="effect1_dropShadow_476_1607"/>
<feBlend mode="normal" in="SourceGraphic" in2="effect1_dropShadow_476_1607" result="shape"/>
</filter>
</defs>
</svg>
