<svg width="32" height="32" viewBox="0 0 32 32" fill="none" xmlns="http://www.w3.org/2000/svg">
<path d="M15.9998 29.3337C23.3636 29.3337 29.3332 23.3641 29.3332 16.0003C29.3332 8.63653 23.3636 2.66699 15.9998 2.66699C8.63604 2.66699 2.6665 8.63653 2.6665 16.0003C2.6665 23.3641 8.63604 29.3337 15.9998 29.3337Z" stroke="#FF6467" stroke-width="3" stroke-linecap="round" stroke-linejoin="round"/>
<path d="M24 17.333C23.6819 19.2162 22.7005 20.9235 21.2332 22.1462C19.766 23.3689 17.9097 24.0264 16 23.9997C14.0903 24.0264 12.234 23.3689 10.7668 22.1462C9.29952 20.9235 8.31813 19.2162 8 17.333H24Z" stroke="#FF6467" stroke-width="3" stroke-linecap="round" stroke-linejoin="round"/>
<path d="M12 12H12.0133" stroke="#FF6467" stroke-width="3" stroke-linecap="round" stroke-linejoin="round"/>
<path d="M20 12H20.0133" stroke="#FF6467" stroke-width="3" stroke-linecap="round" stroke-linejoin="round"/>
</svg>
