<svg
    width="25"
    height="21"
    viewBox="0 0 25 21"
    fill="none"
    xmlns="http://www.w3.org/2000/svg"
  >
    <path
      fillRule="evenodd"
      clipRule="evenodd"
      d="M4.03925 9.20924C5.49795 9.95582 7.7645 9.72721 9.10358 8.67833C9.70759 8.20523 10.1229 7.56523 10.1903 6.77256C10.2021 6.63264 10.2073 6.49758 10.2061 6.36738C10.1879 4.50406 8.84788 3.63709 6.92358 3.80589C6.56365 3.83746 6.17321 3.93423 5.77675 4.08826C5.45642 4.21271 5.13214 4.37455 4.81685 4.56958C3.46243 5.40738 2.27358 6.8578 2.27358 8.58922C2.40028 9.84642 2.6691 9.66298 3.05379 9.40048C3.32698 9.21406 3.6586 8.98777 4.03925 9.20924ZM6.42358 7.5519C7.06792 7.5519 7.54025 6.99624 7.54025 6.3519C7.54025 5.70757 7.20125 5.26857 6.55692 5.26857C5.91258 5.26857 5.40692 5.90757 5.40692 6.5519C5.40692 7.19624 5.77925 7.5519 6.42358 7.5519Z"
      fill="white"
    />
    <path
      d="M10.2061 6.36738C10.2073 6.49758 10.2021 6.63264 10.1903 6.77256C10.1229 7.56523 9.70759 8.20523 9.10358 8.67833C9.26666 9.37987 9.82673 10.092 10.95 10.6205C10.9622 10.6262 10.9779 10.6295 10.9902 10.6352C11.8402 10.9934 12.5543 11.1989 13.1467 11.2882C13.9209 11.4049 14.4873 11.3229 14.8772 11.1233C15.1192 10.9995 15.2933 10.8303 15.4069 10.6352C15.6862 10.1559 15.7111 9.64007 15.557 9.13364C15.4132 8.66088 15.1133 8.1963 14.7187 7.77725C13.846 6.85028 12.5098 6.14604 11.3736 6.06857C10.9452 6.06857 10.5472 6.17865 10.2061 6.36738Z"
      fill="white"
    />
    <path
      d="M14.8772 11.1233C14.8828 11.2884 14.904 11.4539 14.9421 11.6186C16.2105 11.5456 18.4402 11.0019 18.4402 11.0019C18.4402 11.0019 18.9649 12.8909 19.9319 14.7349C22.2006 14.9827 23.4214 14.1255 23.5402 13.9383C25.1704 11.3698 21.9519 7.70292 18.7402 7.5019C17.8386 7.5019 16.9738 7.84451 16.2917 8.38381C16.013 8.60422 15.7647 8.85749 15.557 9.13364C15.7111 9.64007 15.6862 10.1559 15.4069 10.6352C15.2933 10.8303 15.1192 10.9995 14.8772 11.1233Z"
      fill="white"
    />
    <path
      d="M18.4402 11.0019C18.4402 11.0019 16.2105 11.5456 14.9421 11.6186C15.1577 12.5505 15.914 13.4547 17.4402 14.1019C18.3764 14.464 19.2075 14.6558 19.9319 14.7349C18.9649 12.8909 18.4402 11.0019 18.4402 11.0019Z"
      fill="white"
    />
    <path
      d="M9.10358 8.67833C7.7645 9.72721 5.49795 9.95582 4.03925 9.20924C3.6586 8.98777 3.32698 9.21406 3.05379 9.40048C2.6691 9.66298 2.40028 9.84642 2.27358 8.58922C2.27358 6.8578 3.46243 5.40738 4.81685 4.56958M9.10358 8.67833C9.70759 8.20523 10.1229 7.56523 10.1903 6.77256C10.2021 6.63264 10.2073 6.49758 10.2061 6.36738M9.10358 8.67833C9.26666 9.37987 9.82672 10.092 10.95 10.6205M4.81685 4.56958C5.13214 4.37455 5.45642 4.21271 5.77675 4.08826M4.81685 4.56958C4.78248 4.28049 4.57352 3.27814 3.30691 2.33522C1.80691 1.21856 0.5 2.00008 0.5 2.00008M5.77675 4.08826C6.17321 3.93423 6.56365 3.83746 6.92358 3.80589C8.84788 3.63709 10.1879 4.50406 10.2061 6.36738M5.77675 4.08826C5.7826 3.82346 5.72572 2.68249 4.43477 1.43354C2.96018 0.00693776 1.45097 0.639932 1.45097 0.639932M10.2061 6.36738C10.5472 6.17865 10.9452 6.06857 11.3736 6.06857C12.5098 6.14604 13.846 6.85027 14.7187 7.77724M14.8772 11.1233C15.1192 10.9995 15.2933 10.8303 15.4069 10.6352C15.6862 10.1559 15.7111 9.64007 15.557 9.13364M14.8772 11.1233C14.4873 11.3229 13.9209 11.4049 13.1467 11.2882M14.8772 11.1233C14.8828 11.2884 14.904 11.4539 14.9421 11.6186M15.557 9.13364C15.7647 8.85749 16.013 8.60422 16.2917 8.38381M15.557 9.13364C15.4132 8.66088 15.1133 8.1963 14.7187 7.77724M16.2917 8.38381C16.9738 7.84451 17.8386 7.5019 18.7402 7.5019C21.9519 7.70292 25.1704 11.3698 23.5402 13.9383C23.4214 14.1255 22.2006 14.9827 19.9319 14.7349M16.2917 8.38381C15.059 6.64095 15.5797 6.34471 14.7187 7.77724M7.74024 19.2352C9.00127 18.4071 9.83597 13.1188 9.83597 13.1188C9.83597 13.1188 12.0301 12.1014 11.9928 11.0208M17.7725 20.0648C16.3404 19.082 15.9962 13.7261 15.9962 13.7261C15.9962 13.7261 13.4505 12.4366 13.6336 11.3686M14.0992 11.3525C14.0094 11.5913 14.382 11.6508 14.9421 11.6186M23.1736 18.1186C21.8239 17.7409 20.728 16.2532 19.9319 14.7349M13.1467 11.2882C13.2907 14.0335 13.6188 15.1778 14.5986 16.5162M13.1467 11.2882C12.5543 11.1989 11.8402 10.9934 10.9902 10.6352C10.9779 10.6295 10.9622 10.6262 10.95 10.6205M13.1467 11.2882C13.148 11.3144 13.1453 11.2624 13.1467 11.2882ZM10.95 10.6205C10.4684 11.6857 7.29025 11.4518 7.29025 11.4518C7.29025 11.4518 5.66024 17.1579 3.67358 17.2685M14.9421 11.6186C16.2105 11.5456 18.4402 11.0019 18.4402 11.0019C18.4402 11.0019 18.9649 12.8909 19.9319 14.7349M14.9421 11.6186C15.1577 12.5505 15.914 13.4547 17.4402 14.1019C18.3764 14.464 19.2075 14.6558 19.9319 14.7349M7.54025 6.3519C7.54025 6.99624 7.06792 7.5519 6.42358 7.5519C5.77925 7.5519 5.40692 7.19624 5.40692 6.5519C5.40692 5.90757 5.91258 5.26857 6.55692 5.26857C7.20125 5.26857 7.54025 5.70757 7.54025 6.3519Z"
      stroke="white"
      strokeLinecap="round"
    />
  </svg>