<svg width="224" height="89" viewBox="0 0 224 89" fill="none" xmlns="http://www.w3.org/2000/svg">
<circle cx="60" cy="44.5" r="20" fill="black"/>
<path fill-rule="evenodd" clip-rule="evenodd" d="M51.8059 43.4426C53.2646 44.1892 55.5311 43.9606 56.8702 42.9117C57.4742 42.4386 57.8895 41.7986 57.9569 41.006C57.9687 40.866 57.9739 40.731 57.9727 40.6008C57.9545 38.7375 56.6145 37.8705 54.6902 38.0393C54.3303 38.0709 53.9398 38.1676 53.5434 38.3217C53.223 38.4461 52.8987 38.6079 52.5834 38.803C51.229 39.6408 50.0402 41.0912 50.0402 42.8226C50.1669 44.0798 50.4357 43.8964 50.8204 43.6339C51.0936 43.4475 51.4252 43.2212 51.8059 43.4426ZM54.1902 41.7853C54.8345 41.7853 55.3069 41.2296 55.3069 40.5853C55.3069 39.941 54.9679 39.502 54.3235 39.502C53.6792 39.502 53.1735 40.141 53.1735 40.7853C53.1735 41.4296 53.5459 41.7853 54.1902 41.7853Z" fill="white"/>
<path d="M57.9727 40.6008C57.9739 40.731 57.9687 40.866 57.9569 41.006C57.8895 41.7986 57.4742 42.4386 56.8702 42.9117C57.0333 43.6133 57.5933 44.3254 58.7166 44.8539C58.7288 44.8596 58.7445 44.8629 58.7569 44.8686C59.6068 45.2268 60.3209 45.4323 60.9133 45.5216C61.6875 45.6383 62.2539 45.5563 62.6438 45.3567C62.8858 45.2329 63.0599 45.0637 63.1735 44.8686C63.4528 44.3893 63.4777 43.8735 63.3236 43.367C63.1798 42.8943 62.8799 42.4297 62.4853 42.0106C61.6126 41.0837 60.2764 40.3794 59.1402 40.302C58.7118 40.302 58.3138 40.412 57.9727 40.6008Z" fill="white"/>
<path d="M62.6438 45.3567C62.6494 45.5218 62.6706 45.6873 62.7087 45.852C63.9771 45.779 66.2069 45.2353 66.2069 45.2353C66.2069 45.2353 66.7315 47.1243 67.6985 48.9683C69.9672 49.2161 71.188 48.3589 71.3068 48.1717C72.937 45.6032 69.7185 41.9363 66.5068 41.7353C65.6052 41.7353 64.7404 42.0779 64.0583 42.6172C63.7796 42.8376 63.5313 43.0909 63.3236 43.367C63.4777 43.8735 63.4528 44.3893 63.1735 44.8686C63.0599 45.0637 62.8858 45.2329 62.6438 45.3567Z" fill="white"/>
<path d="M66.2069 45.2353C66.2069 45.2353 63.9771 45.779 62.7087 45.852C62.9243 46.7839 63.6806 47.6881 65.2068 48.3353C66.143 48.6974 66.9741 48.8892 67.6985 48.9683C66.7315 47.1243 66.2069 45.2353 66.2069 45.2353Z" fill="white"/>
<path d="M56.8702 42.9117C55.5311 43.9606 53.2646 44.1892 51.8059 43.4426C51.4252 43.2212 51.0936 43.4475 50.8204 43.6339C50.4357 43.8964 50.1669 44.0798 50.0402 42.8226C50.0402 41.0912 51.229 39.6408 52.5834 38.803M56.8702 42.9117C57.4742 42.4386 57.8895 41.7986 57.9569 41.006C57.9687 40.866 57.9739 40.731 57.9727 40.6008M56.8702 42.9117C57.0333 43.6133 57.5933 44.3254 58.7166 44.8539M52.5834 38.803C52.8987 38.6079 53.223 38.4461 53.5434 38.3217M52.5834 38.803C52.5491 38.5139 52.3401 37.5115 51.0735 36.5686C49.5735 35.452 48.2666 36.2335 48.2666 36.2335M53.5434 38.3217C53.9398 38.1676 54.3303 38.0709 54.6902 38.0393C56.6145 37.8705 57.9545 38.7375 57.9727 40.6008M53.5434 38.3217C53.5492 38.0569 53.4923 36.9159 52.2014 35.6669C50.7268 34.2403 49.2176 34.8733 49.2176 34.8733M57.9727 40.6008C58.3138 40.412 58.7118 40.302 59.1402 40.302C60.2764 40.3794 61.6126 41.0837 62.4853 42.0106M62.6438 45.3567C62.8858 45.2329 63.0599 45.0637 63.1735 44.8686C63.4528 44.3893 63.4777 43.8735 63.3236 43.367M62.6438 45.3567C62.2539 45.5563 61.6875 45.6383 60.9133 45.5216M62.6438 45.3567C62.6494 45.5218 62.6706 45.6873 62.7087 45.852M63.3236 43.367C63.5313 43.0909 63.7796 42.8376 64.0583 42.6172M63.3236 43.367C63.1798 42.8943 62.8799 42.4297 62.4853 42.0106M64.0583 42.6172C64.7404 42.0779 65.6052 41.7353 66.5068 41.7353C69.7185 41.9363 72.937 45.6032 71.3068 48.1717C71.188 48.3589 69.9672 49.2161 67.6985 48.9683M64.0583 42.6172C62.8256 40.8743 63.3463 40.5781 62.4853 42.0106M55.5068 53.4686C56.7679 52.6405 57.6026 47.3522 57.6026 47.3522C57.6026 47.3522 59.7967 46.3348 59.7594 45.2542M65.5391 54.2982C64.107 53.3154 63.7628 47.9595 63.7628 47.9595C63.7628 47.9595 61.2171 46.67 61.4002 45.602M61.8658 45.5859C61.776 45.8247 62.1486 45.8842 62.7087 45.852M70.9402 52.352C69.5905 51.9743 68.4946 50.4866 67.6985 48.9683M60.9133 45.5216C61.0573 48.2669 61.3854 49.4112 62.3652 50.7496M60.9133 45.5216C60.3209 45.4323 59.6068 45.2268 58.7569 44.8686C58.7445 44.8629 58.7288 44.8596 58.7166 44.8539M60.9133 45.5216C60.9146 45.5477 60.9119 45.4958 60.9133 45.5216ZM58.7166 44.8539C58.235 45.9191 55.0569 45.6852 55.0569 45.6852C55.0569 45.6852 53.4268 51.3913 51.4402 51.5019M62.7087 45.852C63.9771 45.779 66.2068 45.2353 66.2068 45.2353C66.2068 45.2353 66.7315 47.1243 67.6985 48.9683M62.7087 45.852C62.9243 46.7839 63.6806 47.6881 65.2068 48.3353C66.143 48.6974 66.9741 48.8892 67.6985 48.9683M55.3069 40.5853C55.3069 41.2296 54.8345 41.7853 54.1902 41.7853C53.5459 41.7853 53.1735 41.4296 53.1735 40.7853C53.1735 40.141 53.6792 39.502 54.3235 39.502C54.9679 39.502 55.3069 39.941 55.3069 40.5853Z" stroke="white" stroke-linecap="round"/>
<path d="M96 44L101.333 42.6667V58.6667C100.667 57.5111 99.7111 56.7778 98.4667 56.4667C97.2667 56.1556 96 56 94.6667 56C92.8444 56 91.2667 55.4222 89.9333 54.2667C88.6444 53.1111 88 51.6889 88 50V44L93.3333 42.6667V50C93.3333 50.3556 93.4667 50.6667 93.7333 50.9333C94 51.2 94.3111 51.3333 94.6667 51.3333C95.0222 51.3333 95.3333 51.2 95.6 50.9333C95.8667 50.6667 96 50.3556 96 50V44ZM102.516 50V41.3333C103.182 42.4889 104.116 43.2222 105.316 43.5333C106.56 43.8444 107.849 44 109.182 44C111.005 44 112.56 44.5111 113.849 45.5333C115.182 46.5111 115.849 48 115.849 50C115.849 51.6444 115.182 53.0667 113.849 54.2667C112.56 55.4222 111.005 56 109.182 56C108.738 56 108.293 56.0222 107.849 56.0667V64.6667V71.3333L102.516 72.6667V63.3333V58.6667V50ZM109.182 48.6667C108.827 48.6667 108.516 48.8 108.249 49.0667C107.982 49.3333 107.849 49.6444 107.849 50C107.849 50.3556 107.982 50.6667 108.249 50.9333C108.516 51.2 108.827 51.3333 109.182 51.3333C109.538 51.3333 109.849 51.2 110.116 50.9333C110.382 50.6667 110.516 50.3556 110.516 50C110.516 49.6444 110.382 49.3333 110.116 49.0667C109.849 48.8 109.538 48.6667 109.182 48.6667ZM123.698 56C121.876 56 120.298 55.5111 118.965 54.5333C117.676 53.5111 117.031 52 117.031 50C117.031 48.3111 117.676 46.8889 118.965 45.7333C120.298 44.5778 121.876 44 123.698 44C124.142 44 124.587 43.9778 125.031 43.9333V20L130.365 18.6667V41.3333V50C130.365 54 128.142 56 123.698 56ZM123.698 51.3333C124.053 51.3333 124.365 51.2 124.631 50.9333C124.898 50.6667 125.031 50.3556 125.031 50C125.031 49.6444 124.898 49.3333 124.631 49.0667C124.365 48.8 124.053 48.6667 123.698 48.6667C123.342 48.6667 123.031 48.8 122.765 49.0667C122.498 49.3333 122.365 49.6444 122.365 50C122.365 50.3556 122.498 50.6667 122.765 50.9333C123.031 51.2 123.342 51.3333 123.698 51.3333ZM138.214 56C136.391 56 134.814 55.5111 133.48 54.5333C132.191 53.5111 131.547 52 131.547 50C131.547 48.3111 132.191 46.8889 133.48 45.7333C134.814 44.5778 136.391 44 138.214 44C140.036 44 141.591 44.5778 142.88 45.7333C144.214 46.8889 144.88 48.3111 144.88 50C144.88 54 142.658 56 138.214 56ZM138.214 51.3333C138.569 51.3333 138.88 51.2 139.147 50.9333C139.414 50.6667 139.547 50.3556 139.547 50C139.547 49.6444 139.414 49.3333 139.147 49.0667C138.88 48.8 138.569 48.6667 138.214 48.6667C137.858 48.6667 137.547 48.8 137.28 49.0667C137.014 49.3333 136.88 49.6444 136.88 50C136.88 50.3556 137.014 50.6667 137.28 50.9333C137.547 51.2 137.858 51.3333 138.214 51.3333ZM153.863 40.6667H158.996L151.862 56L144.729 40.6667H149.862L151.862 45L153.863 40.6667ZM162.996 40.6667H168.129L160.996 56L153.863 40.6667H158.996L160.996 45L162.996 40.6667ZM173.285 56L167.951 57.3333V41.3333C168.618 42.4889 169.551 43.2222 170.751 43.5333C171.996 43.8444 173.285 44 174.618 44C176.44 44 177.996 44.5778 179.285 45.7333C180.618 46.8889 181.285 48.3111 181.285 50V56L175.951 57.3333V50C175.951 49.6444 175.818 49.3333 175.551 49.0667C175.285 48.8 174.973 48.6667 174.618 48.6667C174.262 48.6667 173.951 48.8 173.685 49.0667C173.418 49.3333 173.285 49.6444 173.285 50V56Z" fill="black"/>
</svg>
