<svg width="144" height="57" viewBox="0 0 144 57" fill="none" xmlns="http://www.w3.org/2000/svg">
<circle cx="20" cy="28.5" r="20" fill="black"/>
<path fill-rule="evenodd" clip-rule="evenodd" d="M11.8059 27.4426C13.2646 28.1892 15.5311 27.9606 16.8702 26.9117C17.4742 26.4386 17.8895 25.7986 17.9569 25.006C17.9687 24.866 17.9739 24.731 17.9727 24.6008C17.9545 22.7375 16.6145 21.8705 14.6902 22.0393C14.3303 22.0709 13.9398 22.1676 13.5434 22.3217C13.223 22.4461 12.8987 22.6079 12.5834 22.803C11.229 23.6408 10.0402 25.0912 10.0402 26.8226C10.1669 28.0798 10.4357 27.8964 10.8204 27.6339C11.0936 27.4475 11.4252 27.2212 11.8059 27.4426ZM14.1902 25.7853C14.8345 25.7853 15.3069 25.2296 15.3069 24.5853C15.3069 23.941 14.9679 23.502 14.3235 23.502C13.6792 23.502 13.1735 24.141 13.1735 24.7853C13.1735 25.4296 13.5459 25.7853 14.1902 25.7853Z" fill="white"/>
<path d="M17.9727 24.6008C17.9739 24.731 17.9687 24.866 17.9569 25.006C17.8895 25.7986 17.4742 26.4386 16.8702 26.9117C17.0333 27.6133 17.5933 28.3254 18.7166 28.8539C18.7288 28.8596 18.7445 28.8629 18.7569 28.8686C19.6068 29.2268 20.3209 29.4323 20.9133 29.5216C21.6875 29.6383 22.2539 29.5563 22.6438 29.3567C22.8858 29.2329 23.0599 29.0637 23.1735 28.8686C23.4528 28.3893 23.4777 27.8735 23.3236 27.367C23.1798 26.8943 22.8799 26.4297 22.4853 26.0106C21.6126 25.0837 20.2764 24.3794 19.1402 24.302C18.7118 24.302 18.3138 24.412 17.9727 24.6008Z" fill="white"/>
<path d="M22.6438 29.3567C22.6494 29.5218 22.6706 29.6873 22.7087 29.852C23.9771 29.779 26.2068 29.2353 26.2068 29.2353C26.2068 29.2353 26.7315 31.1243 27.6985 32.9683C29.9672 33.2161 31.188 32.3589 31.3068 32.1717C32.937 29.6032 29.7185 25.9363 26.5068 25.7353C25.6052 25.7353 24.7404 26.0779 24.0583 26.6172C23.7796 26.8376 23.5313 27.0909 23.3236 27.367C23.4777 27.8735 23.4528 28.3893 23.1735 28.8686C23.0599 29.0637 22.8858 29.2329 22.6438 29.3567Z" fill="white"/>
<path d="M26.2068 29.2353C26.2068 29.2353 23.9771 29.779 22.7087 29.852C22.9243 30.7839 23.6806 31.6881 25.2068 32.3353C26.143 32.6974 26.9741 32.8892 27.6985 32.9683C26.7315 31.1243 26.2068 29.2353 26.2068 29.2353Z" fill="white"/>
<path d="M16.8702 26.9117C15.5311 27.9606 13.2646 28.1892 11.8059 27.4426C11.4252 27.2212 11.0936 27.4475 10.8204 27.6339C10.4357 27.8964 10.1669 28.0798 10.0402 26.8226C10.0402 25.0912 11.229 23.6408 12.5834 22.803M16.8702 26.9117C17.4742 26.4386 17.8895 25.7986 17.9569 25.006C17.9687 24.866 17.9739 24.731 17.9727 24.6008M16.8702 26.9117C17.0333 27.6133 17.5933 28.3254 18.7166 28.8539M12.5834 22.803C12.8987 22.6079 13.223 22.4461 13.5434 22.3217M12.5834 22.803C12.5491 22.5139 12.3401 21.5115 11.0735 20.5686C9.57351 19.452 8.2666 20.2335 8.2666 20.2335M13.5434 22.3217C13.9398 22.1676 14.3303 22.0709 14.6902 22.0393C16.6145 21.8705 17.9545 22.7375 17.9727 24.6008M13.5434 22.3217C13.5492 22.0569 13.4923 20.9159 12.2014 19.6669C10.7268 18.2403 9.21757 18.8733 9.21757 18.8733M17.9727 24.6008C18.3138 24.412 18.7118 24.302 19.1402 24.302C20.2764 24.3794 21.6126 25.0837 22.4853 26.0106M22.6438 29.3567C22.8858 29.2329 23.0599 29.0637 23.1735 28.8686C23.4528 28.3893 23.4777 27.8735 23.3236 27.367M22.6438 29.3567C22.2539 29.5563 21.6875 29.6383 20.9133 29.5216M22.6438 29.3567C22.6494 29.5218 22.6706 29.6873 22.7087 29.852M23.3236 27.367C23.5313 27.0909 23.7796 26.8376 24.0583 26.6172M23.3236 27.367C23.1798 26.8943 22.8799 26.4297 22.4853 26.0106M24.0583 26.6172C24.7404 26.0779 25.6052 25.7353 26.5068 25.7353C29.7185 25.9363 32.937 29.6032 31.3068 32.1717C31.188 32.3589 29.9672 33.2161 27.6985 32.9683M24.0583 26.6172C22.8256 24.8743 23.3463 24.5781 22.4853 26.0106M15.5068 37.4686C16.7679 36.6405 17.6026 31.3522 17.6026 31.3522C17.6026 31.3522 19.7967 30.3348 19.7594 29.2542M25.5391 38.2982C24.107 37.3154 23.7628 31.9595 23.7628 31.9595C23.7628 31.9595 21.2171 30.67 21.4002 29.602M21.8658 29.5859C21.776 29.8247 22.1486 29.8842 22.7087 29.852M30.9402 36.352C29.5905 35.9743 28.4946 34.4866 27.6985 32.9683M20.9133 29.5216C21.0573 32.2669 21.3854 33.4112 22.3652 34.7496M20.9133 29.5216C20.3209 29.4323 19.6068 29.2268 18.7569 28.8686C18.7445 28.8629 18.7288 28.8596 18.7166 28.8539M20.9133 29.5216C20.9146 29.5477 20.9119 29.4958 20.9133 29.5216ZM18.7166 28.8539C18.235 29.9191 15.0569 29.6852 15.0569 29.6852C15.0569 29.6852 13.4268 35.3913 11.4402 35.5019M22.7087 29.852C23.9771 29.779 26.2068 29.2353 26.2068 29.2353C26.2068 29.2353 26.7315 31.1243 27.6985 32.9683M22.7087 29.852C22.9243 30.7839 23.6806 31.6881 25.2068 32.3353C26.143 32.6974 26.9741 32.8892 27.6985 32.9683M15.3069 24.5853C15.3069 25.2296 14.8345 25.7853 14.1902 25.7853C13.5459 25.7853 13.1735 25.4296 13.1735 24.7853C13.1735 24.141 13.6792 23.502 14.3235 23.502C14.9679 23.502 15.3069 23.941 15.3069 24.5853Z" stroke="white" stroke-linecap="round"/>
<path d="M56 28L61.3333 26.6667V42.6667C60.6667 41.5111 59.7111 40.7778 58.4667 40.4667C57.2667 40.1556 56 40 54.6667 40C52.8444 40 51.2667 39.4222 49.9333 38.2667C48.6444 37.1111 48 35.6889 48 34V28L53.3333 26.6667V34C53.3333 34.3556 53.4667 34.6667 53.7333 34.9333C54 35.2 54.3111 35.3333 54.6667 35.3333C55.0222 35.3333 55.3333 35.2 55.6 34.9333C55.8667 34.6667 56 34.3556 56 34V28ZM62.5156 34V25.3333C63.1823 26.4889 64.1156 27.2222 65.3156 27.5333C66.5601 27.8444 67.849 28 69.1823 28C71.0045 28 72.5601 28.5111 73.849 29.5333C75.1823 30.5111 75.849 32 75.849 34C75.849 35.6444 75.1823 37.0667 73.849 38.2667C72.5601 39.4222 71.0045 40 69.1823 40C68.7378 40 68.2934 40.0222 67.849 40.0667V48.6667V55.3333L62.5156 56.6667V47.3333V42.6667V34ZM69.1823 32.6667C68.8267 32.6667 68.5156 32.8 68.249 33.0667C67.9823 33.3333 67.849 33.6444 67.849 34C67.849 34.3556 67.9823 34.6667 68.249 34.9333C68.5156 35.2 68.8267 35.3333 69.1823 35.3333C69.5378 35.3333 69.849 35.2 70.1156 34.9333C70.3823 34.6667 70.5156 34.3556 70.5156 34C70.5156 33.6444 70.3823 33.3333 70.1156 33.0667C69.849 32.8 69.5378 32.6667 69.1823 32.6667ZM83.6979 40C81.8757 40 80.2979 39.5111 78.9646 38.5333C77.6757 37.5111 77.0312 36 77.0312 34C77.0312 32.3111 77.6757 30.8889 78.9646 29.7333C80.2979 28.5778 81.8757 28 83.6979 28C84.1424 28 84.5868 27.9778 85.0312 27.9333V4L90.3646 2.66667V25.3333V34C90.3646 38 88.1424 40 83.6979 40ZM83.6979 35.3333C84.0535 35.3333 84.3646 35.2 84.6312 34.9333C84.8979 34.6667 85.0312 34.3556 85.0312 34C85.0312 33.6444 84.8979 33.3333 84.6312 33.0667C84.3646 32.8 84.0535 32.6667 83.6979 32.6667C83.3424 32.6667 83.0312 32.8 82.7646 33.0667C82.4979 33.3333 82.3646 33.6444 82.3646 34C82.3646 34.3556 82.4979 34.6667 82.7646 34.9333C83.0312 35.2 83.3424 35.3333 83.6979 35.3333ZM98.2135 40C96.3913 40 94.8135 39.5111 93.4802 38.5333C92.1913 37.5111 91.5469 36 91.5469 34C91.5469 32.3111 92.1913 30.8889 93.4802 29.7333C94.8135 28.5778 96.3913 28 98.2135 28C100.036 28 101.591 28.5778 102.88 29.7333C104.214 30.8889 104.88 32.3111 104.88 34C104.88 38 102.658 40 98.2135 40ZM98.2135 35.3333C98.5691 35.3333 98.8802 35.2 99.1469 34.9333C99.4135 34.6667 99.5469 34.3556 99.5469 34C99.5469 33.6444 99.4135 33.3333 99.1469 33.0667C98.8802 32.8 98.5691 32.6667 98.2135 32.6667C97.858 32.6667 97.5469 32.8 97.2802 33.0667C97.0135 33.3333 96.8802 33.6444 96.8802 34C96.8802 34.3556 97.0135 34.6667 97.2802 34.9333C97.5469 35.2 97.858 35.3333 98.2135 35.3333ZM113.863 24.6667H118.996L111.862 40L104.729 24.6667H109.862L111.862 29L113.863 24.6667ZM122.996 24.6667H128.129L120.996 40L113.863 24.6667H118.996L120.996 29L122.996 24.6667ZM133.285 40L127.951 41.3333V25.3333C128.618 26.4889 129.551 27.2222 130.751 27.5333C131.996 27.8444 133.285 28 134.618 28C136.44 28 137.996 28.5778 139.285 29.7333C140.618 30.8889 141.285 32.3111 141.285 34V40L135.951 41.3333V34C135.951 33.6444 135.818 33.3333 135.551 33.0667C135.285 32.8 134.973 32.6667 134.618 32.6667C134.262 32.6667 133.951 32.8 133.685 33.0667C133.418 33.3333 133.285 33.6444 133.285 34V40Z" fill="black"/>
</svg>
