<svg width="40" height="40" viewBox="0 0 40 40" fill="none" xmlns="http://www.w3.org/2000/svg">
<path d="M0 20C0 8.95431 8.95431 0 20 0C31.0457 0 40 8.95431 40 20C40 31.0457 31.0457 40 20 40C8.95431 40 0 31.0457 0 20Z" fill="#DBEAFE"/>
<path d="M13.244 23.2563C13.3543 23.5345 13.3788 23.8393 13.3145 24.1315L12.5158 26.599C12.49 26.7242 12.4967 26.8538 12.5351 26.9756C12.5735 27.0975 12.6424 27.2075 12.7353 27.2952C12.8281 27.383 12.9418 27.4455 13.0657 27.477C13.1895 27.5085 13.3193 27.5078 13.4428 27.475L16.0025 26.7265C16.2783 26.6718 16.5639 26.6957 16.8268 26.7955C18.4283 27.5434 20.2425 27.7017 21.9494 27.2423C23.6562 26.7829 25.146 25.7355 26.1558 24.2848C27.1656 22.8341 27.6306 21.0733 27.4687 19.3132C27.3069 17.553 26.5285 15.9066 25.2711 14.6644C24.0136 13.4222 22.3578 12.664 20.5958 12.5237C18.8338 12.3833 17.0789 12.8698 15.6406 13.8973C14.2023 14.9247 13.1732 16.4272 12.7347 18.1395C12.2962 19.8518 12.4766 21.664 13.244 23.2563Z" stroke="#2B7FFF" stroke-width="1.5" stroke-linecap="round" stroke-linejoin="round"/>
</svg>
