<svg width="40" height="40" viewBox="0 0 40 40" fill="none" xmlns="http://www.w3.org/2000/svg">
<path d="M0 20C0 8.95431 8.95431 0 20 0C31.0457 0 40 8.95431 40 20C40 31.0457 31.0457 40 20 40C8.95431 40 0 31.0457 0 20Z" fill="#FFE2E2"/>
<path d="M12.5 18.1254C12.5 17.2908 12.7532 16.4758 13.2261 15.7881C13.699 15.1005 14.3694 14.5724 15.1487 14.2737C15.928 13.975 16.7796 13.9197 17.591 14.1152C18.4024 14.3106 19.1354 14.7476 19.6932 15.3684C19.7325 15.4104 19.78 15.4439 19.8328 15.4668C19.8856 15.4897 19.9425 15.5015 20 15.5015C20.0575 15.5015 20.1144 15.4897 20.1672 15.4668C20.22 15.4439 20.2675 15.4104 20.3068 15.3684C20.8628 14.7436 21.596 14.3029 22.4087 14.1051C23.2214 13.9073 24.0751 13.9617 24.8562 14.261C25.6372 14.5604 26.3085 15.0905 26.7808 15.7808C27.2531 16.4712 27.504 17.289 27.5 18.1254C27.5 19.8429 26.375 21.1254 25.25 22.2504L21.131 26.2351C20.9913 26.3957 20.8189 26.5246 20.6255 26.6134C20.4321 26.7022 20.222 26.7488 20.0092 26.7501C19.7964 26.7515 19.5857 26.7075 19.3912 26.6212C19.1967 26.5349 19.0228 26.4081 18.881 26.2494L14.75 22.2504C13.625 21.1254 12.5 19.8504 12.5 18.1254Z" stroke="#FB2C36" stroke-width="1.5" stroke-linecap="round" stroke-linejoin="round"/>
</svg>
